<?xml version="1.0" standalone="no"?>
<!DOCTYPE svg PUBLIC "-//W3C//DTD SVG 20010904//EN"
 "http://www.w3.org/TR/2001/REC-SVG-20010904/DTD/svg10.dtd">
<svg version="1.0" xmlns="http://www.w3.org/2000/svg"
 width="1080.000000pt" height="1080.000000pt" viewBox="0 0 1080.000000 1080.000000"
 preserveAspectRatio="xMidYMid meet">

<g transform="translate(0.000000,1080.000000) scale(0.100000,-0.100000)"
fill="#000000" stroke="none">
<path d="M5050 10789 c-548 -36 -1129 -168 -1650 -373 -181 -72 -524 -238
-701 -341 -412 -239 -765 -510 -1110 -855 -353 -352 -622 -701 -864 -1119
-101 -175 -268 -517 -340 -701 -269 -677 -401 -1414 -381 -2130 22 -809 210
-1568 563 -2274 74 -148 75 -150 92 -127 17 22 17 21 28 -48 8 -53 23 -92 59
-156 26 -47 51 -85 56 -85 5 0 5 41 2 91 -5 65 -3 93 5 99 12 7 19 40 20 98 1
17 5 32 11 32 11 0 50 -85 50 -109 0 -32 41 -123 77 -171 39 -52 59 -64 50
-30 -3 11 -1 18 4 14 12 -7 12 -6 -5 52 -23 78 -36 201 -32 299 5 101 9 124
27 157 7 13 12 30 11 40 -2 9 2 19 9 23 8 5 9 1 4 -14 -5 -17 -2 -21 16 -21
12 0 20 3 16 6 -3 3 5 17 19 31 13 13 24 28 24 33 0 6 6 10 13 10 9 0 13 -23
13 -82 1 -52 8 -98 18 -122 9 -21 16 -46 16 -56 0 -10 7 -31 15 -46 8 -16 15
-38 15 -49 0 -11 5 -27 10 -35 7 -10 8 -3 5 25 l-5 40 16 -45 c8 -25 16 -62
17 -82 1 -20 5 -32 8 -26 4 6 10 -3 14 -21 3 -17 10 -31 15 -31 5 0 8 -14 8
-30 -1 -34 8 -48 22 -34 5 5 1 37 -10 80 -11 40 -27 112 -36 160 -9 49 -18
100 -21 114 -2 14 -4 71 -4 128 0 114 21 208 69 315 36 79 96 146 82 92 -4
-16 -1 -143 5 -175 3 -16 1 -32 -5 -35 -5 -3 -10 -12 -10 -18 0 -7 4 -6 10 3
5 8 10 12 10 7 0 -4 -5 -16 -12 -26 -13 -21 -4 -56 12 -46 5 3 10 4 10 0 0 -3
-10 -10 -22 -15 -16 -6 -18 -9 -6 -9 11 -1 15 -7 11 -21 -3 -11 0 -27 7 -35 7
-8 10 -24 7 -34 -3 -14 -1 -18 9 -14 10 3 12 0 8 -10 -3 -10 -12 -13 -22 -10
-14 5 -15 3 -5 -7 10 -10 15 -11 27 -1 11 9 15 9 19 -1 4 -10 6 -10 6 1 1 10
5 11 14 3 9 -8 12 15 12 111 0 135 7 177 31 177 14 0 14 3 4 15 -11 13 -10 19
7 35 21 19 21 18 19 -6 0 -13 -4 -24 -8 -24 -4 0 -5 -7 -2 -15 4 -9 0 -15 -7
-15 -10 0 -11 -3 -3 -8 15 -9 23 -92 9 -92 -5 0 -3 -5 5 -10 12 -7 12 -12 3
-21 -10 -10 -9 -15 5 -26 9 -8 12 -12 5 -9 -6 4 -14 3 -16 -2 -3 -4 6 -12 19
-19 13 -6 24 -7 24 -2 0 5 -4 9 -10 9 -18 0 1 26 20 27 15 1 20 -5 20 -23 0
-13 6 -24 13 -24 14 0 14 0 1 161 -5 70 -3 106 7 135 7 21 14 44 15 49 5 27
24 65 32 65 5 0 8 13 7 30 -1 16 2 27 6 25 10 -7 77 116 95 174 8 27 21 54 29
61 13 10 17 7 30 -21 8 -20 14 -27 15 -16 0 10 5 15 11 12 11 -7 6 -115 -7
-137 -4 -7 7 0 24 16 18 17 33 28 33 25 9 -28 2 -62 -13 -70 -21 -11 -25 -34
-5 -26 10 4 14 -7 14 -44 1 -27 -4 -49 -9 -49 -7 0 -7 -4 -1 -12 11 -14 10
-98 0 -115 -4 -6 -2 -13 5 -15 7 -3 8 -9 3 -18 -10 -16 -12 -59 -14 -258 -1
-78 1 -147 4 -152 3 -6 3 -10 -2 -10 -10 0 -9 -92 1 -108 4 -6 2 -21 -4 -32
-8 -15 -8 -20 1 -20 8 0 10 -12 6 -35 -3 -19 -2 -35 2 -35 11 0 9 -50 -2 -67
-5 -7 -4 -13 1 -13 9 0 12 -14 12 -67 0 -18 5 -35 10 -38 5 -3 8 102 7 252 -2
263 8 567 19 585 3 5 8 37 10 71 4 61 10 112 13 112 2 0 13 104 13 125 0 8 4
31 9 50 4 19 11 60 14 90 10 88 25 194 31 213 3 9 1 17 -5 17 -6 0 -11 -7 -11
-15 0 -8 -4 -15 -10 -15 -5 0 -10 -7 -10 -15 0 -8 -4 -15 -10 -15 -13 0 -13
25 0 72 11 37 75 102 92 92 4 -3 8 2 8 11 0 9 5 15 12 13 6 -2 25 9 42 24 17
15 40 31 51 34 11 4 39 23 63 42 23 19 45 32 49 29 7 -8 6 -132 -2 -158 -4
-11 -2 -19 4 -19 6 0 11 -19 11 -44 0 -37 6 -50 35 -79 20 -20 36 -47 38 -64
2 -16 6 -33 9 -38 7 -13 22 -78 20 -88 -1 -4 3 -7 9 -7 6 0 9 -7 5 -15 -3 -8
-2 -15 2 -15 4 0 8 -21 9 -46 3 -54 8 -63 26 -44 6 7 7 10 1 7 -7 -4 -11 6
-12 26 l-1 32 15 -25 15 -25 -7 25 c-4 14 -9 32 -11 40 -4 12 -3 12 5 1 8 -11
10 -11 14 0 2 7 4 -7 3 -32 0 -24 2 -56 6 -71 4 -14 5 -29 1 -32 -3 -4 -7 -32
-8 -64 -1 -31 -2 -57 -4 -57 -1 0 -3 -30 -4 -67 -1 -37 -5 -70 -8 -74 -4 -4
-3 -15 3 -26 5 -10 7 -22 4 -27 -7 -13 -14 -80 -19 -196 -3 -62 -1 -94 5 -85
5 8 9 10 9 4 0 -6 -7 -17 -15 -24 -9 -7 -14 -28 -13 -54 0 -23 -3 -53 -7 -67
-7 -20 -6 -22 7 -12 12 10 15 9 15 -5 0 -9 -5 -23 -11 -31 -9 -12 -8 -13 6 -8
14 5 16 0 15 -28 -1 -20 -6 -30 -11 -25 -9 9 -29 -5 -39 -30 -4 -8 -4 8 -2 35
2 28 2 41 -1 30 -3 -11 -8 -27 -11 -35 -3 -8 -5 -19 -4 -23 0 -4 -3 -16 -8
-26 -7 -12 -5 -26 5 -46 8 -16 13 -33 10 -39 -2 -6 -5 -3 -5 7 -1 26 -18 21
-23 -8 -3 -13 -1 -22 3 -19 5 3 9 1 9 -5 0 -5 -4 -13 -10 -16 -5 -3 -10 -21
-10 -38 0 -18 -4 -47 -10 -66 -6 -23 -6 -39 1 -50 9 -13 10 -12 6 7 -3 12 -1
20 4 16 13 -8 11 -28 -4 -42 -7 -8 -12 -41 -13 -82 0 -39 -3 -73 -7 -76 -3 -3
-2 -17 3 -30 5 -13 6 -24 2 -24 -4 0 -8 -18 -8 -40 -1 -24 3 -37 9 -33 6 4 7
1 1 -8 -5 -8 -9 -21 -9 -29 0 -8 -4 -20 -8 -27 -9 -14 8 -27 23 -18 6 3 10 1
10 -4 0 -6 -6 -11 -14 -11 -7 0 -16 -9 -19 -21 -4 -16 -2 -19 10 -15 13 6 14
4 3 -10 -12 -13 -11 -17 1 -25 12 -7 11 -9 -3 -9 -13 0 -16 -10 -16 -45 1 -37
4 -43 15 -33 7 6 16 8 20 5 3 -4 -6 -12 -21 -18 -24 -11 -24 -13 -8 -26 16
-12 16 -14 -3 -28 -16 -13 -17 -17 -6 -24 11 -7 10 -10 -5 -15 -11 -3 -7 -4 8
-2 15 2 25 -1 22 -5 -3 -5 -11 -9 -19 -9 -23 0 -37 -64 -22 -102 3 -10 -1 -19
-11 -23 -14 -5 -14 -7 -2 -15 11 -7 12 -10 2 -10 -7 0 -12 -8 -11 -17 5 -57
-1 -73 -27 -73 -21 0 -24 -3 -15 -13 6 -8 8 -17 5 -20 -12 -11 6 -57 22 -57 8
0 12 -5 9 -10 -4 -6 -11 -8 -16 -5 -9 6 -13 -7 -10 -32 1 -6 -3 -14 -8 -17
-11 -7 -22 33 -16 62 2 12 0 24 -6 27 -5 4 -9 1 -9 -6 0 -7 -3 -10 -6 -7 -3 4
2 17 11 31 11 17 13 27 6 32 -6 3 -11 0 -12 -7 0 -7 -4 -4 -9 7 -12 27 -12 43
0 25 15 -23 12 -6 -5 26 -13 25 -13 30 2 46 9 10 23 18 32 19 11 0 12 2 3 6
-7 3 -22 -3 -33 -13 -16 -14 -22 -15 -32 -4 -8 8 -8 11 -1 7 7 -4 15 0 18 9 9
23 7 31 -4 14 -7 -12 -12 -12 -29 4 -21 19 -20 37 2 35 9 0 8 -2 -1 -6 -13 -5
-7 -23 8 -23 4 0 6 14 3 31 -3 21 -1 29 6 24 6 -3 11 -1 11 4 0 6 -4 11 -10
11 -5 0 -10 7 -10 15 0 9 6 15 13 13 7 -2 14 0 15 5 1 4 0 7 -3 7 -3 0 -10 0
-15 0 -6 0 -15 -10 -20 -22 -7 -18 -9 -19 -9 -5 -1 10 10 29 23 42 21 21 22
26 10 36 -12 10 -12 14 -2 22 9 6 7 7 -7 2 -11 -4 -31 -7 -44 -6 -14 0 -21 -2
-17 -6 4 -4 19 -7 34 -8 40 0 34 -27 -10 -48 -41 -19 -47 -26 -22 -23 24 2 26
-31 2 -37 -12 -4 -28 3 -40 15 -13 13 -16 19 -6 16 9 -4 15 0 15 8 0 8 -11 14
-26 15 l-26 0 24 10 c20 8 22 11 10 26 -8 9 -13 17 -11 17 8 3 -12 86 -21 86
-6 0 -8 3 -4 6 3 4 -2 28 -12 55 -10 26 -16 50 -13 53 3 4 -4 6 -15 6 -16 0
-20 -5 -16 -20 3 -11 9 -20 13 -20 4 0 7 -10 6 -22 0 -13 6 -39 13 -58 8 -19
15 -37 15 -40 1 -3 7 -15 14 -27 7 -13 10 -23 6 -23 -11 0 -33 34 -34 51 0 9
-7 20 -16 23 -8 3 -13 10 -9 15 3 6 -3 14 -12 20 -14 8 -15 10 -3 11 13 0 13
1 0 10 -8 5 -24 7 -35 4 -18 -4 -17 -3 4 15 16 15 19 21 8 21 -8 0 -20 7 -27
15 -15 18 0 20 20 3 12 -11 12 -10 1 4 -7 9 -10 22 -7 27 10 15 -12 23 -31 11
-15 -9 -14 -10 7 -5 l25 7 -22 -16 c-18 -14 -21 -21 -13 -41 6 -17 6 -25 -1
-25 -6 0 -7 -5 -4 -10 3 -5 1 -10 -5 -10 -6 0 -4 -13 7 -32 9 -18 17 -37 18
-43 0 -5 6 -21 13 -35 11 -22 11 -23 -1 -7 -29 36 -32 10 -7 -60 8 -23 8 -37
1 -51 -8 -15 -8 -22 2 -25 9 -4 9 -6 0 -6 -6 -1 -15 3 -18 9 -3 5 -10 10 -14
10 -5 0 7 -32 26 -71 19 -38 32 -73 29 -76 -3 -4 -6 -1 -6 5 0 7 -7 12 -17 12
-15 0 -15 -1 0 -18 18 -19 23 -42 10 -42 -11 0 -10 -52 1 -69 7 -11 5 -13 -7
-8 -9 3 -21 -1 -29 -11 -9 -11 -10 -14 -1 -8 9 4 13 1 13 -10 0 -12 3 -14 13
-6 10 8 13 6 14 -9 2 -24 -15 -24 -41 0 -28 25 -116 73 -116 62 0 -9 114 -99
135 -108 28 -10 36 -80 11 -95 -7 -5 -7 -8 3 -8 8 0 11 -3 8 -6 -11 -11 350
-294 374 -294 5 0 9 9 9 21 0 11 -4 18 -8 15 -7 -4 -13 24 -15 77 -1 9 -4 17
-8 17 -4 0 -7 12 -7 28 -1 31 -17 119 -27 145 -4 10 -3 17 4 17 6 0 11 -10 12
-22 0 -22 1 -22 9 -3 11 26 12 37 2 31 -14 -8 -29 7 -45 46 -15 36 -15 36 10
33 36 -4 47 -19 27 -36 -16 -12 -17 -12 -12 3 4 10 1 19 -9 22 -11 5 -14 2 -9
-10 3 -8 6 -19 6 -23 0 -4 11 -13 25 -19 24 -11 24 -14 20 -81 -5 -59 -3 -71
12 -80 10 -6 12 -11 6 -11 -7 0 -13 -7 -13 -16 0 -8 4 -12 10 -9 6 4 7 -2 1
-17 -6 -18 -3 -27 13 -42 17 -15 17 -18 4 -13 -10 4 -18 2 -18 -3 0 -6 4 -10
8 -10 4 0 9 -11 10 -26 3 -33 21 -66 34 -62 11 4 14 36 21 210 4 79 2 106 -7
101 -7 -5 -7 -2 1 8 12 15 11 57 -2 79 -6 9 -4 11 5 5 10 -6 12 -3 8 13 -4 12
-2 25 3 28 5 3 6 17 3 31 -11 41 -11 97 -1 117 6 13 5 21 -4 27 -8 5 -9 9 -3
9 15 0 18 191 4 200 -8 5 -6 9 5 13 10 5 14 3 9 -5 -4 -7 -3 -8 5 -4 9 6 9 11
1 21 -6 7 -8 25 -4 41 6 21 4 25 -7 19 -12 -7 -12 -6 0 9 9 11 15 45 17 92 1
41 5 78 8 81 11 11 6 24 -6 17 -9 -6 -9 -3 0 9 8 9 12 20 9 24 -3 4 -2 39 2
76 4 38 4 70 1 72 -4 3 -3 28 1 57 5 29 9 69 9 88 0 19 2 73 6 120 3 47 7 113
8 146 0 34 4 60 9 57 4 -2 7 3 7 11 0 8 -4 18 -10 21 -6 4 -4 14 5 28 8 12 14
31 13 42 0 11 2 49 6 85 4 36 8 88 10 115 2 28 6 61 10 75 3 14 8 45 10 70 9
81 18 144 26 187 4 24 3 40 -1 37 -5 -3 -4 7 1 22 6 15 10 34 8 43 -1 9 1 36
5 61 4 25 10 65 13 90 4 25 7 129 8 232 1 164 3 185 16 175 8 -7 6 -1 -5 11
-15 18 -16 25 -6 31 9 6 10 11 2 15 -6 4 -11 15 -10 24 0 14 2 13 9 -3 6 -13
7 -7 2 20 -4 22 -7 61 -7 87 0 25 -3 44 -7 41 -8 -4 -12 11 -9 36 2 8 -2 10
-11 5 -10 -6 -10 -4 -2 7 6 8 10 58 9 121 0 59 2 105 6 102 4 -2 9 3 13 11 5
13 1 13 -29 1 -53 -22 -42 1 13 27 26 12 49 24 52 27 8 8 33 13 87 15 28 2 55
5 60 8 17 10 133 5 126 -6 -3 -5 -1 -7 5 -4 5 4 8 17 6 30 -4 20 -4 21 5 2 5
-11 10 -14 10 -7 1 7 6 10 12 6 8 -5 7 -9 -1 -14 -24 -15 -4 -37 28 -32 16 2
32 0 35 -5 3 -5 -2 -10 -11 -11 -64 -6 -88 -18 -74 -35 5 -7 12 -38 14 -70 3
-33 9 -62 14 -65 10 -8 16 -26 18 -64 2 -38 13 -44 37 -22 21 19 54 82 51 97
-1 4 2 7 8 7 5 0 15 19 22 43 6 23 18 51 25 63 7 11 10 24 7 27 -4 4 -1 14 6
22 7 9 23 38 36 65 27 58 68 100 98 100 17 0 18 2 7 9 -12 8 -9 11 13 17 18 4
25 11 22 21 -3 7 0 13 7 12 6 -1 19 -1 27 0 13 1 13 2 0 11 -13 8 -12 10 3 10
9 0 17 5 17 11 0 6 6 9 14 6 15 -6 16 9 2 31 -9 16 2 31 12 17 10 -14 32 -17
32 -5 0 15 -63 22 -95 11 -28 -10 -29 -10 -11 4 11 8 24 15 29 15 4 0 5 4 2
10 -3 6 1 7 9 4 9 -3 16 -1 16 5 0 6 14 11 30 11 20 0 30 5 30 15 0 8 5 15 11
15 5 0 7 4 4 10 -4 6 6 7 26 3 33 -6 78 -47 79 -71 0 -7 4 -11 9 -7 5 3 12 1
16 -4 3 -6 12 -8 20 -4 18 6 20 -13 3 -21 -7 -3 -4 -4 8 -1 24 6 56 -3 49 -14
-2 -4 -28 -9 -57 -10 -34 -1 -57 -7 -64 -17 -9 -11 -13 -12 -16 -3 -2 7 -10 9
-17 5 -9 -6 -9 -11 -1 -21 9 -11 6 -12 -12 -9 -22 5 -22 5 2 -9 14 -9 28 -13
32 -11 5 3 8 0 8 -6 0 -7 -7 -10 -14 -7 -11 4 -13 1 -10 -11 5 -15 4 -15 -9 1
-10 13 -17 15 -22 7 -8 -13 27 -50 46 -50 9 0 7 -4 -3 -13 -18 -14 -31 -47
-19 -47 5 0 11 9 14 20 5 21 37 28 37 9 0 -6 -7 -8 -16 -5 -14 5 -15 4 -4 -9
7 -8 15 -13 19 -11 9 6 -2 -106 -12 -121 -5 -7 -5 -13 0 -14 4 0 18 -2 31 -3
16 -2 22 3 22 16 0 10 4 18 8 18 9 0 48 81 44 93 -3 11 13 8 27 -5 11 -11 12
-10 5 2 -15 26 -14 48 2 54 8 3 13 10 9 16 -3 5 0 20 7 32 7 13 12 25 13 28 0
10 50 57 71 68 16 8 20 7 21 -6 1 -9 3 -27 4 -40 l3 -23 18 23 18 23 -3 -25
c-1 -17 2 -24 12 -22 11 2 10 -2 -3 -22 -18 -28 -21 -40 -7 -32 11 7 9 -13 -2
-32 -5 -7 -13 -10 -18 -6 -9 5 -5 -32 8 -66 3 -8 5 -26 4 -39 -2 -17 1 -21 11
-15 9 5 8 2 -2 -11 -8 -10 -14 -27 -12 -38 2 -10 0 -17 -5 -14 -11 7 -10 -74
1 -92 6 -10 5 -12 -2 -7 -7 4 -12 1 -12 -9 0 -9 4 -14 9 -10 5 3 13 0 17 -6 4
-7 3 -9 -3 -6 -6 4 -16 0 -23 -8 -14 -17 -4 -175 12 -175 5 0 6 4 3 10 -3 5
-1 18 5 27 11 17 11 17 6 0 -3 -11 0 -17 10 -17 12 0 14 7 9 29 -4 18 -2 32 6
37 7 4 10 3 5 -4 -3 -6 -2 -13 4 -17 5 -3 7 -17 4 -31 -4 -15 -2 -24 5 -24 9
0 9 -5 1 -20 -7 -12 -7 -20 -1 -20 14 0 23 34 15 56 -6 16 -3 15 19 -5 15 -14
27 -34 26 -45 0 -19 -1 -18 -11 4 -6 14 -12 20 -15 13 -4 -12 20 -56 48 -83
14 -15 16 -14 26 5 12 26 8 136 -5 144 -9 6 -23 42 -28 71 -2 8 -8 34 -15 57
-6 23 -9 54 -7 67 3 14 2 23 -2 21 -15 -9 -19 24 -5 35 11 9 25 4 67 -25 29
-21 64 -52 78 -70 14 -18 27 -32 29 -30 2 2 26 -23 54 -55 27 -33 53 -57 57
-55 4 3 10 -2 14 -10 3 -8 11 -15 18 -14 10 0 10 2 0 6 -10 4 -10 8 0 21 10
12 10 14 1 8 -7 -4 -13 -2 -13 3 0 14 3 14 34 0 24 -11 24 -13 9 -36 -15 -22
-14 -25 3 -38 24 -18 37 -19 31 -2 -2 6 -9 12 -15 12 -7 0 -12 3 -12 8 0 29 2
31 14 15 7 -10 17 -18 21 -18 17 0 43 -32 38 -46 -3 -8 0 -14 5 -14 6 0 14 -9
17 -20 6 -20 35 -28 35 -10 0 6 -7 10 -15 10 -8 0 -16 6 -16 13 -7 62 -7 61 5
45 17 -22 40 -27 52 -9 10 13 14 13 29 1 9 -8 21 -25 26 -38 5 -13 13 -20 19
-17 13 8 13 42 0 50 -5 3 -15 16 -21 27 -10 18 -9 20 5 15 8 -3 18 -2 20 2 3
5 26 7 51 6 40 -1 48 2 60 24 8 14 14 20 15 14 0 -23 20 -13 20 10 0 17 -9 26
-32 35 -32 11 -118 86 -118 102 0 4 -9 10 -21 13 -12 3 -18 10 -15 16 4 5 -3
12 -14 16 -11 4 -17 11 -14 17 4 6 9 5 15 -3 4 -7 11 -10 15 -7 4 4 20 -12 36
-37 19 -29 41 -48 64 -55 18 -6 34 -16 34 -21 0 -6 5 -7 11 -3 8 4 7 9 -2 15
-8 5 -9 9 -4 9 6 0 3 5 -5 11 -12 8 -8 9 13 4 26 -5 27 -4 17 16 -8 15 -9 19
-1 15 6 -4 11 0 11 8 0 23 16 20 34 -6 22 -32 30 -15 11 22 -9 18 -12 30 -7
26 5 -3 12 5 14 19 3 14 1 25 -3 25 -5 0 -8 3 -7 8 1 4 -3 17 -10 28 -6 12 -8
24 -5 28 3 3 0 6 -9 6 -10 0 -13 -8 -10 -30 2 -16 -1 -43 -6 -60 -9 -26 -9
-30 6 -31 13 0 12 -2 -5 -9 -12 -5 -25 -15 -30 -23 -10 -17 -53 -41 -60 -33
-4 3 6 15 20 27 29 22 36 49 13 49 -20 0 -27 27 -10 40 11 10 14 8 14 -10 0
-13 5 -20 13 -18 6 3 12 11 12 19 0 8 3 16 7 19 7 6 11 27 9 56 -1 26 -43 48
-60 31 -6 -6 -14 -7 -18 -2 -5 4 -2 10 5 12 22 8 42 34 35 46 -4 7 1 6 10 -2
9 -7 15 -17 12 -21 -6 -9 23 -50 36 -50 6 0 7 5 3 11 -4 7 0 9 13 5 16 -5 19
-1 18 28 -1 19 -13 48 -27 66 -22 28 -32 33 -64 32 -27 -1 -57 9 -101 34 -53
29 -67 33 -79 23 -8 -7 -12 -19 -9 -27 3 -10 0 -12 -10 -8 -10 4 -15 -1 -15
-15 0 -15 5 -19 16 -15 8 3 12 2 9 -4 -3 -6 -1 -10 4 -10 6 0 11 -4 11 -10 0
-5 -7 -10 -16 -10 -8 0 -13 -4 -9 -10 3 -5 13 -6 21 -3 14 5 14 3 2 -16 -13
-22 -14 -21 -61 31 -26 29 -47 49 -46 43 3 -15 -12 -45 -22 -45 -6 0 -5 8 1
19 5 11 10 28 10 38 0 15 -2 16 -11 3 -8 -12 -9 -12 -7 5 1 11 -2 27 -7 35 -5
8 -10 20 -10 25 0 6 -8 9 -17 9 -10 -1 -14 4 -11 12 3 8 0 14 -6 14 -6 0 -11
5 -11 10 0 17 30 11 57 -10 40 -31 97 -25 70 8 -9 13 -9 14 1 8 22 -13 12 8
-20 41 -20 21 -27 33 -17 33 8 0 48 -33 89 -73 63 -61 84 -76 135 -90 148 -44
186 -74 215 -172 13 -41 16 -281 4 -317 -4 -13 2 -28 15 -42 11 -12 32 -53 47
-91 25 -66 26 -77 20 -190 -3 -66 -10 -136 -15 -155 -5 -19 -12 -228 -16 -465
-3 -236 -8 -448 -10 -470 -2 -22 -9 -105 -15 -185 -17 -222 -40 -509 -45 -565
-6 -67 -23 -349 -35 -570 -8 -148 -48 -485 -65 -545 -2 -8 -9 -78 -15 -155
-14 -184 -18 -220 -40 -410 -11 -88 -23 -203 -26 -256 -8 -114 -32 -99 207
-128 517 -64 1018 -52 1544 35 128 21 380 75 480 102 34 10 34 15 12 102 -8
30 -24 100 -37 155 -12 55 -26 111 -31 125 -5 14 -11 35 -14 48 -2 12 -15 60
-29 105 -14 45 -28 96 -32 112 -3 17 -19 71 -35 120 -16 50 -30 101 -33 115
-2 14 -11 45 -19 70 -30 89 -56 207 -68 305 -16 129 -20 337 -7 329 5 -4 8
-14 5 -24 -3 -11 2 -21 10 -24 10 -4 13 -2 10 8 -4 9 1 17 12 21 17 5 26 35
10 35 -5 0 -6 8 -2 18 4 11 -1 8 -15 -8 -12 -14 -21 -19 -22 -12 0 7 -4 10
-10 7 -5 -3 -9 9 -8 29 1 27 4 32 12 23 6 -7 10 -10 9 -8 -2 2 3 11 10 19 9
13 9 14 0 8 -8 -4 -13 -2 -13 4 0 6 -5 8 -12 4 -7 -4 -8 -3 -4 4 4 6 14 9 24
6 16 -5 16 -4 1 8 -14 11 -14 15 -3 26 17 16 18 36 2 26 -10 -6 -10 -4 0 8 7
8 10 23 6 32 -3 9 -1 16 5 16 6 0 8 7 5 15 -4 8 -1 22 5 29 9 11 9 15 -1 19
-7 3 -3 6 10 6 16 1 21 -3 16 -11 -5 -9 -2 -9 9 1 9 7 17 20 17 28 0 8 4 12 8
9 5 -3 9 2 9 10 0 10 -4 11 -11 4 -5 -5 -15 -10 -21 -10 -5 0 -3 4 5 10 8 5
12 12 9 15 -9 9 -40 -6 -33 -16 3 -5 -3 -6 -12 -2 -13 5 -16 3 -11 -10 4 -10
2 -14 -7 -11 -9 3 -12 -4 -9 -28 3 -22 1 -29 -5 -20 -5 7 -8 23 -7 35 1 12 -3
26 -9 30 -7 6 -4 7 6 3 10 -3 21 1 25 8 5 7 17 18 28 25 19 11 18 11 -5 5 -23
-6 -23 -6 -7 10 9 10 21 14 27 11 6 -4 9 -1 8 7 -2 7 3 12 10 10 7 -1 15 5 18
13 3 8 10 12 15 9 5 -3 9 0 9 5 0 18 21 8 52 -23 16 -16 25 -32 20 -35 -15
-11 -22 -41 -9 -41 8 0 6 -4 -3 -10 -8 -5 -10 -10 -5 -10 6 0 4 -4 -3 -9 -9
-5 -14 -33 -15 -84 -1 -41 -5 -73 -10 -70 -4 2 -5 9 -2 14 4 5 1 9 -6 9 -8 0
-8 4 1 15 10 12 10 15 -3 15 -16 0 -16 -16 -2 -51 3 -10 2 -20 -4 -24 -6 -3
-11 -11 -11 -16 0 -6 4 -8 9 -5 11 7 36 -22 27 -31 -3 -3 -6 -1 -6 5 0 7 -5
12 -11 12 -5 0 -7 -6 -3 -13 4 -6 -2 -3 -14 7 -12 11 -22 14 -22 8 0 -6 -7
-17 -15 -26 -9 -9 -11 -17 -5 -21 5 -3 10 -1 10 4 0 13 42 10 52 -4 5 -6 8 -5
8 3 0 7 5 10 10 7 6 -3 10 -1 10 4 0 6 5 11 11 11 5 0 7 -6 3 -12 -4 -8 -3
-10 2 -5 5 5 9 14 9 20 1 7 5 11 11 10 5 -1 10 22 11 50 0 28 5 53 11 55 6 2
7 14 3 30 -7 24 -5 27 16 27 21 0 22 -1 6 -12 -9 -7 -12 -13 -6 -13 6 0 16 7
24 16 10 13 10 17 -2 25 -8 5 -9 9 -4 9 6 0 11 8 12 18 1 9 3 24 5 32 2 9 -3
14 -11 12 -12 -3 -12 0 -1 12 9 12 10 20 2 29 -9 11 -4 13 28 10 21 -1 41 1
44 6 4 5 -4 7 -16 4 -18 -4 -20 -3 -8 6 8 6 16 15 16 21 1 5 3 11 4 13 7 6 6
46 0 42 -7 -5 -7 16 3 87 2 15 0 25 -4 22 -10 -6 0 25 13 43 6 7 12 44 14 84
3 40 10 81 15 92 9 15 8 18 -2 12 -9 -6 -10 -4 -3 6 9 15 12 40 18 150 2 37 6
71 10 77 3 6 2 22 -4 37 -8 22 -8 26 4 22 11 -4 12 2 5 31 -4 20 -6 38 -3 41
2 2 4 -2 4 -9 0 -24 11 -3 16 30 4 24 2 30 -7 25 -8 -6 -10 -4 -5 4 5 7 15 10
23 7 8 -3 12 -2 8 3 -3 5 3 17 12 27 16 16 16 16 -7 10 -20 -6 -22 -5 -8 4 9
5 19 22 22 38 4 15 9 38 12 52 10 47 9 88 -1 83 -5 -2 -3 1 5 9 19 16 22 50 7
60 -9 6 -9 8 -1 8 7 0 14 9 17 20 3 11 1 20 -4 20 -5 0 -9 -7 -9 -15 0 -20
-16 -19 -24 1 -8 22 -8 26 4 19 6 -3 10 -1 10 4 0 6 6 11 14 11 14 0 26 42 26
93 0 47 -13 23 -16 -29 -1 -26 -8 -50 -15 -55 -20 -12 -23 -4 -10 32 11 32 11
32 -7 13 -10 -10 -17 -27 -14 -36 2 -10 -1 -18 -7 -18 -7 0 -8 -8 -1 -25 5
-14 6 -25 1 -25 -5 0 -5 -16 -1 -36 6 -26 5 -34 -4 -31 -14 5 -40 -29 -32 -42
3 -4 1 -21 -3 -37 -7 -25 -8 -23 -8 19 0 53 -7 67 -26 47 -9 -10 -9 -11 1 -6
6 4 12 3 12 -3 0 -5 3 -16 6 -25 3 -9 1 -16 -5 -16 -6 0 -11 6 -11 14 0 12
-16 24 -37 26 -9 2 -28 -61 -28 -92 1 -15 -3 -24 -7 -22 -4 3 -8 -4 -8 -15 0
-12 6 -21 13 -21 8 0 8 -3 1 -8 -21 -14 -37 -73 -35 -132 0 -37 4 -61 20 -125
13 -50 13 -64 1 -45 -5 8 -10 10 -10 4 0 -5 4 -14 9 -20 17 -18 23 -55 9 -52
-19 4 -28 20 -28 53 -1 25 -2 27 -11 13 -7 -12 -6 -24 1 -37 14 -27 13 -36 -4
-21 -8 6 -16 21 -18 33 -3 20 -4 19 -9 -5 -4 -15 -3 -25 2 -23 9 6 23 -34 15
-42 -3 -4 -6 1 -6 10 0 10 -5 14 -15 11 -8 -4 -15 -16 -15 -28 0 -15 3 -17 9
-8 6 10 11 9 22 -4 9 -12 10 -15 2 -10 -14 8 -15 6 -17 -36 -2 -21 2 -25 19
-22 18 3 19 2 3 -10 -10 -7 -15 -16 -11 -19 3 -4 0 -14 -8 -24 -9 -11 -10 -14
-1 -9 7 4 12 1 12 -9 0 -10 5 -13 12 -9 7 4 8 3 4 -5 -4 -6 -12 -9 -17 -6 -5
4 -9 -5 -9 -19 0 -13 -6 -31 -14 -38 -7 -8 -17 -24 -20 -36 -4 -12 -15 -22
-24 -22 -15 0 -15 -2 -2 -10 8 -5 10 -10 4 -10 -7 0 -14 -9 -17 -20 -3 -11 -1
-18 3 -15 5 3 11 -1 14 -7 4 -7 4 -3 2 9 -4 20 -2 21 16 12 17 -9 18 -13 5
-27 -8 -9 -17 -29 -21 -44 -3 -16 -11 -28 -16 -28 -6 0 -3 -12 7 -27 14 -21
14 -25 3 -21 -8 2 -16 10 -16 16 -1 7 -3 15 -4 20 -1 4 -2 11 -1 15 1 5 -4 7
-11 5 -7 -3 -19 2 -26 11 -8 9 -11 10 -7 3 3 -6 1 -12 -4 -12 -6 0 -11 -6 -11
-13 0 -14 -27 -16 -48 -3 -12 7 -13 6 -16 -14 0 -5 -4 -10 -8 -10 -5 0 -12 0
-17 0 -4 0 -6 11 -3 25 2 14 9 22 15 18 6 -4 7 -1 2 7 -6 10 -12 8 -26 -8 -20
-26 -29 -28 -29 -6 0 8 5 12 10 9 6 -3 13 1 16 9 3 9 15 16 26 16 11 0 18 5
15 13 -2 6 3 17 12 24 14 10 13 11 -6 6 -13 -3 -23 -9 -23 -14 0 -5 -9 -9 -20
-9 -11 0 -24 -8 -27 -17 -6 -15 -7 -14 -13 3 -4 10 -4 26 1 35 6 11 4 21 -6
29 -9 7 -31 65 -51 129 -40 128 -75 235 -128 386 -48 137 -102 357 -122 495
-11 77 -17 198 -18 370 -3 288 -3 287 -85 455 -36 72 -46 102 -38 108 12 8 -9
5 -62 -9 -21 -6 -23 -5 -16 17 6 20 5 22 -6 11 -22 -21 -46 -13 -75 24 -16 20
-41 42 -56 50 -84 44 -51 136 86 236 110 80 209 192 254 288 12 25 46 75 76
110 54 63 122 179 161 270 10 25 29 68 41 96 12 28 32 84 44 125 12 41 33 96
47 122 45 90 45 93 15 129 -15 18 -34 46 -42 61 -8 16 -37 47 -65 70 -75 62
-107 96 -114 125 -4 14 -12 27 -18 29 -16 6 3 -91 33 -172 15 -38 33 -88 41
-110 15 -41 14 -124 -2 -159 -5 -12 -5 -17 1 -13 6 3 15 2 22 -2 9 -5 7 -24
-9 -77 -11 -38 -20 -76 -21 -84 0 -8 -9 -35 -20 -60 -11 -25 -29 -64 -39 -87
-10 -24 -23 -43 -29 -43 -5 0 -9 -3 -8 -7 5 -24 -74 -144 -138 -210 -39 -40
-185 -143 -203 -143 -5 0 -11 -3 -13 -7 -4 -10 -57 -42 -80 -50 -10 -3 -18 -9
-18 -14 0 -5 -7 -9 -15 -9 -17 0 -56 -20 -66 -34 -8 -10 -31 2 -25 13 3 4 -1
8 -9 8 -12 0 -12 -3 -3 -14 9 -11 8 -17 -3 -24 -8 -5 -20 -9 -26 -9 -7 0 -13
-4 -13 -10 0 -5 -8 -10 -17 -10 -14 1 -12 6 10 25 15 14 24 25 18 25 -5 0 -17
3 -27 7 -12 4 -15 2 -12 -8 7 -18 -29 -69 -48 -69 -8 0 -14 -5 -14 -12 0 -9
-3 -9 -12 0 -7 7 -19 12 -27 11 -11 0 -10 -3 4 -9 19 -8 19 -9 -2 -9 -13 -1
-23 -6 -23 -12 0 -7 -10 -9 -25 -7 -17 4 -25 1 -25 -8 0 -13 -12 -18 -32 -15
-5 0 -8 -3 -8 -8 0 -5 -11 -11 -25 -13 -27 -6 -31 3 -14 34 6 12 7 18 1 14 -5
-3 -12 1 -16 9 -3 8 -10 15 -16 15 -6 0 -4 -7 4 -16 9 -8 13 -20 10 -26 -4 -6
-7 -20 -8 -31 -1 -25 -42 -42 -50 -21 -3 8 -1 14 4 14 6 0 10 7 10 15 0 8 -4
15 -10 15 -5 0 -9 -5 -7 -12 1 -7 -6 -12 -15 -13 -10 0 -17 -4 -17 -9 0 -5 -5
-13 -13 -17 -11 -7 -10 -11 2 -19 10 -7 11 -10 3 -11 -17 -2 -25 -4 -45 -13
-12 -6 -25 0 -42 21 -14 15 -26 34 -26 41 0 6 -4 12 -10 12 -14 0 -13 -7 5
-34 14 -21 14 -25 -3 -46 -20 -25 -92 -37 -121 -20 -13 8 -10 10 14 11 17 1
39 1 49 0 19 -1 19 -1 0 20 -16 18 -19 19 -22 5 -4 -17 -22 -23 -22 -7 0 5 -2
16 -5 24 -4 10 2 14 24 14 23 0 33 -6 42 -29 6 -15 16 -28 21 -28 5 0 8 3 6 8
-24 48 -33 62 -44 66 -8 3 -14 1 -14 -4 0 -6 -4 -10 -10 -10 -5 0 -6 7 -3 17
4 11 3 14 -5 9 -7 -4 -12 -3 -12 3 0 15 18 23 33 14 18 -11 49 -14 43 -4 -4 5
0 12 6 14 7 3 -2 3 -19 0 -22 -4 -33 -1 -33 6 0 8 -6 9 -17 3 -13 -6 -23 -4
-34 8 -15 16 -15 18 8 18 18 0 21 -3 12 -9 -21 -13 5 -11 35 2 14 7 23 16 20
21 -3 5 -12 4 -20 -3 -18 -15 -27 -7 -18 15 3 9 11 13 17 9 6 -4 7 -1 3 6 -5
7 0 21 11 33 18 20 18 21 -6 13 -13 -4 -21 -3 -18 2 3 5 -3 9 -13 9 -10 0 -17
-3 -14 -7 2 -4 -8 -6 -23 -6 -26 0 -26 0 -5 16 18 14 19 19 8 34 -7 9 -18 17
-24 17 -6 0 -14 4 -17 10 -7 11 23 2 42 -13 7 -5 20 -7 28 -3 8 3 15 1 15 -3
0 -5 -6 -12 -12 -14 -8 -3 -6 -6 5 -6 9 -1 17 3 17 8 0 5 7 17 16 25 8 9 11
16 6 16 -5 0 -12 -3 -16 -7 -10 -10 -38 -13 -50 -5 -6 4 3 10 19 13 l30 7 -27
1 c-18 1 -28 7 -28 17 0 9 -6 14 -12 11 -7 -2 -11 -13 -9 -23 3 -19 3 -19 -18
0 -22 20 -28 32 -11 21 6 -4 18 -1 26 6 11 9 18 8 34 -6 15 -14 24 -15 47 -6
l28 11 -28 -4 c-20 -2 -25 0 -17 9 14 17 0 27 -19 13 -13 -10 -14 -10 -4 2 14
15 46 23 37 9 -6 -10 -5 -10 46 -14 19 -1 29 0 22 2 -6 3 -10 8 -8 12 3 4 -4
7 -14 7 -10 0 -16 -4 -14 -8 3 -4 0 -8 -5 -8 -6 0 -11 4 -11 10 0 5 -12 17
-27 25 -16 9 -20 14 -11 11 11 -3 22 2 29 16 9 17 9 20 -3 16 -16 -7 -54 17
-40 26 4 3 21 -2 36 -9 24 -13 27 -13 23 -1 -3 8 3 22 14 32 14 13 16 20 8 31
-9 10 -8 13 2 14 8 0 5 4 -6 8 -11 5 -23 4 -26 -1 -3 -5 -19 2 -35 16 l-29 26
33 -11 c18 -6 36 -9 39 -6 3 3 17 1 31 -4 26 -10 26 -10 8 10 -10 11 -22 19
-25 16 -4 -2 -8 5 -8 17 -2 19 -1 18 18 -4 19 -21 21 -22 31 -5 8 14 13 16 24
6 11 -9 17 -9 29 1 14 11 19 7 16 -12 0 -4 6 -5 15 -1 12 5 11 8 -6 20 -12 9
-19 21 -16 31 3 10 1 24 -4 32 -7 11 -10 11 -10 2 0 -7 -5 -10 -10 -7 -6 4 -7
11 -4 17 5 8 1 9 -12 4 -14 -5 -16 -4 -7 5 9 9 19 7 45 -5 18 -9 28 -12 21 -5
-6 6 -9 18 -6 25 4 10 0 13 -13 8 -13 -3 -11 -1 4 8 l23 14 -23 12 c-21 11
-20 12 10 6 19 -3 39 -1 47 6 11 9 15 9 15 1 0 -6 -5 -11 -11 -11 -5 0 -7 -4
-4 -10 8 -13 -19 -52 -29 -43 -4 4 -4 0 -1 -9 7 -17 29 -18 42 -3 4 4 2 5 -4
1 -7 -4 -13 -4 -13 1 0 17 19 37 47 49 15 7 22 13 16 13 -16 1 -17 27 -1 37 6
4 8 3 4 -4 -3 -6 -2 -13 4 -17 5 -3 10 3 10 14 0 22 -24 29 -35 11 -3 -5 -10
-10 -15 -10 -13 0 -40 30 -40 43 0 7 4 6 10 -3 7 -11 12 -12 18 -4 4 7 21 9
40 7 27 -5 34 -11 39 -36 5 -27 7 -28 14 -12 10 26 11 45 2 43 -5 0 -19 4 -33
9 -21 9 -22 12 -8 18 9 4 22 4 28 0 6 -4 9 -1 8 5 -2 7 4 14 12 15 8 2 27 5
43 8 15 3 34 13 43 21 9 9 20 14 25 11 5 -4 9 -2 9 3 0 6 16 13 35 16 37 7 42
15 23 34 -9 9 -8 12 5 12 9 0 17 -5 17 -11 0 -5 4 -8 10 -4 5 3 7 12 3 20 -3
8 0 15 6 15 6 0 10 6 8 13 -1 7 7 11 19 10 15 -2 24 4 28 20 6 24 79 74 101
69 10 -2 13 3 8 14 -4 10 3 24 20 37 14 12 44 38 67 57 22 19 45 36 50 36 6 1
15 2 21 3 5 0 7 6 4 11 -3 6 -1 10 4 10 6 0 10 3 9 8 -2 4 16 27 40 51 23 24
42 50 42 57 0 8 7 14 15 14 8 0 19 9 25 20 6 11 19 20 30 20 11 0 24 12 31 29
7 17 22 32 32 35 10 2 25 23 34 45 9 23 22 41 29 41 6 0 17 14 23 31 l10 30
53 -34 c95 -61 125 -81 187 -129 89 -69 147 -98 201 -99 14 0 70 -16 126 -34
111 -37 105 -36 356 -63 97 -11 181 -23 187 -26 6 -4 48 -7 93 -7 68 0 100 -6
182 -34 93 -33 220 -55 296 -53 40 1 287 -17 435 -33 55 -6 143 -14 195 -19
52 -5 140 -16 195 -24 55 -8 127 -18 160 -21 117 -13 212 -33 256 -55 31 -16
66 -24 122 -26 92 -5 140 -26 201 -88 22 -23 59 -55 81 -71 22 -16 47 -36 55
-45 8 -9 44 -32 80 -52 36 -20 74 -45 85 -55 11 -10 58 -44 105 -74 79 -52
143 -112 213 -199 l28 -35 -20 35 c-15 27 -19 50 -17 100 1 38 7 65 14 68 8 2
7 9 -4 20 -11 11 -13 17 -5 20 6 2 8 8 5 14 -4 6 0 14 7 19 10 6 11 9 2 9 -7
0 -13 5 -13 11 0 5 5 7 10 4 6 -3 10 -2 10 4 0 5 -6 11 -12 14 -10 3 -10 7 1
20 9 11 10 17 2 17 -6 0 -11 5 -11 11 0 5 4 8 9 4 12 -7 10 36 -2 53 -6 8 -5
12 3 12 7 0 10 7 6 16 -3 8 -1 25 5 36 8 16 8 23 -2 30 -9 6 -10 11 -3 14 6 2
9 24 8 49 -2 31 1 43 8 39 7 -4 8 -2 4 5 -4 6 -9 27 -11 46 -2 28 0 32 14 27
14 -5 14 -2 -3 22 -10 16 -14 26 -8 22 17 -10 21 21 6 43 -14 19 -14 22 0 27
21 8 21 24 0 24 -14 0 -14 1 0 16 9 8 14 19 11 24 -3 5 1 11 7 13 8 3 5 6 -6
6 -14 1 -16 4 -7 14 8 10 7 17 -1 25 -9 9 -8 12 7 12 18 0 18 0 -1 15 -19 14
-19 14 1 15 l20 1 -20 9 c-11 5 -14 9 -7 9 9 1 11 8 7 22 -5 15 -4 19 4 15 7
-5 11 1 11 14 0 14 -4 19 -12 14 -10 -6 -10 -4 0 8 11 14 10 18 -4 26 -15 8
-15 9 1 15 9 4 13 12 9 18 -3 6 0 15 7 20 11 7 10 9 -4 9 -10 0 -15 5 -12 10
4 6 11 8 16 4 6 -3 5 3 -2 14 -11 17 -10 24 2 38 13 16 12 16 -11 5 l-25 -12
24 20 c13 12 18 21 11 21 -10 0 -10 3 0 15 15 18 -1 20 -18 3 -9 -9 -12 -9
-12 0 0 7 4 12 8 12 5 0 17 7 28 15 13 11 14 13 3 9 -13 -4 -16 1 -13 23 1 15
-3 31 -9 36 -8 6 -7 7 4 4 9 -3 22 -1 30 4 11 7 10 9 -4 9 -10 0 -15 5 -12 10
3 6 -1 13 -9 16 -9 3 -13 11 -10 16 4 6 10 5 15 -3 7 -10 8 -9 6 6 -1 11 -6
26 -10 33 -5 7 -3 12 3 12 6 0 8 5 5 10 -3 6 0 10 7 10 10 0 10 2 1 8 -8 5 -9
13 -3 22 12 19 13 33 1 26 -5 -3 -8 23 -7 58 0 35 4 62 9 59 4 -2 7 8 8 24 0
15 2 40 4 56 2 15 1 25 -3 23 -4 -2 -7 18 -7 44 0 26 4 46 8 43 4 -3 5 17 2
44 -3 26 -2 43 3 36 4 -7 6 34 5 90 -2 56 2 117 8 135 6 19 7 37 3 41 -13 9
-10 54 4 59 7 2 10 8 6 13 -10 17 -13 68 -4 74 6 4 3 17 -6 31 -15 23 -15 24
0 18 18 -7 19 15 1 29 -7 4 -6 10 1 15 10 7 12 57 2 67 -9 9 4 55 13 49 5 -3
9 0 9 5 0 6 -5 11 -11 11 -8 0 -7 6 2 17 12 15 12 16 -5 10 -18 -7 -18 -6 -2
18 12 18 13 25 4 26 -7 0 -4 4 7 9 11 5 14 9 7 9 -7 1 -10 6 -7 11 3 6 1 10
-5 10 -7 0 -8 5 -3 13 11 17 12 87 0 80 -5 -3 -4 4 2 15 8 15 8 23 0 28 -8 4
-7 9 2 15 12 8 11 11 -1 19 -13 9 -7 14 13 11 16 -2 4 31 -56 150 -225 442
-552 885 -947 1280 -450 451 -899 770 -1474 1049 -835 406 -1775 590 -2696
529z m560 -1388 c0 -3 19 -6 43 -7 76 -1 162 -10 175 -18 7 -4 16 -5 20 -2 3
4 12 -4 20 -16 7 -13 11 -15 8 -5 -3 9 -1 17 4 17 13 0 50 -32 45 -40 -2 -3
11 -7 28 -8 18 -1 40 -5 49 -8 14 -4 16 -1 11 13 -6 14 -2 13 17 -5 29 -26 44
-29 36 -4 -3 9 7 2 24 -16 16 -17 32 -32 35 -31 3 0 11 -2 18 -4 7 -3 5 -6 -5
-6 -27 -1 -22 -20 7 -27 14 -3 25 -10 25 -16 0 -5 -10 -7 -22 -3 -20 5 -21 4
-5 -5 9 -6 21 -9 26 -6 5 3 14 -1 21 -9 7 -8 16 -12 21 -9 5 3 9 0 9 -5 0 -14
-13 -14 -27 0 -8 8 -13 8 -18 0 -4 -7 -1 -10 7 -9 7 2 13 -4 13 -12 0 -16 19
-40 31 -40 5 0 3 5 -4 12 -14 14 -16 28 -3 28 18 0 20 -31 6 -63 -9 -19 -14
-23 -11 -11 3 17 -1 20 -14 17 -10 -3 -17 -12 -15 -21 2 -10 4 -22 4 -28 1 -7
8 -14 15 -17 10 -4 13 -1 9 9 -6 17 13 19 20 2 4 -10 8 -9 16 2 9 13 11 13 11
-1 0 -21 34 -51 73 -64 17 -5 33 -16 35 -24 3 -8 0 -11 -7 -7 -7 5 -11 -2 -11
-19 0 -15 -4 -24 -10 -20 -6 3 -8 21 -5 38 4 21 2 27 -4 18 -5 -8 -11 -9 -15
-3 -9 15 -44 11 -42 -5 3 -20 16 -28 16 -10 0 9 5 17 11 17 5 0 7 -4 4 -10 -3
-5 0 -10 8 -10 10 0 13 -7 10 -20 -4 -13 1 -26 13 -36 18 -13 17 -14 -11 -8
-33 7 -59 33 -80 79 -7 17 -24 39 -36 50 l-23 20 23 -37 c12 -21 19 -38 15
-38 -4 0 4 -10 18 -22 14 -13 24 -31 23 -40 -2 -12 3 -18 17 -18 11 0 26 -7
35 -15 8 -8 20 -12 26 -8 7 3 9 3 5 -2 -5 -5 1 -14 12 -22 21 -15 27 -43 10
-43 -5 0 -9 5 -7 11 1 6 -5 14 -13 16 -10 3 -11 2 -4 -4 6 -4 10 -16 8 -26 -1
-10 6 -23 16 -30 15 -9 17 -14 7 -26 -9 -12 -9 -13 1 -7 20 12 33 -3 20 -24
-10 -16 -10 -22 3 -32 17 -14 32 -58 20 -58 -4 0 -7 -9 -8 -20 -1 -11 3 -20 9
-20 5 0 8 -7 4 -15 -3 -8 -2 -15 3 -15 4 0 14 -19 20 -42 7 -24 17 -48 23 -55
5 -7 6 -18 2 -24 -5 -8 -3 -9 6 -4 8 5 11 3 8 -6 -3 -8 3 -25 12 -39 22 -32
55 -200 75 -380 3 -25 10 -85 17 -135 16 -121 17 -469 1 -515 -7 -19 -15 -64
-18 -100 -2 -36 -13 -96 -24 -134 -11 -38 -17 -76 -13 -84 3 -9 1 -13 -5 -9
-6 4 -14 1 -17 -5 -3 -7 -3 -3 0 10 7 28 -2 29 -16 1 -9 -16 -8 -24 3 -37 11
-13 12 -24 5 -42 -7 -20 -11 -22 -19 -10 -8 11 -8 8 -3 -10 4 -14 7 -34 6 -45
-1 -11 -2 -33 -2 -49 -2 -41 -10 -50 -26 -29 -11 15 -14 15 -15 3 -1 -8 -4 -3
-8 12 -4 21 -9 25 -21 18 -12 -7 -12 -12 0 -35 8 -14 20 -23 27 -21 14 6 17
-4 13 -44 -3 -31 -17 -60 -31 -60 -6 0 -9 10 -7 23 2 12 8 21 13 20 6 -1 10
10 10 23 0 19 -2 21 -10 11 -13 -18 -35 -10 -35 13 0 10 6 21 13 23 6 3 8 6 2
6 -5 0 -15 -3 -21 -7 -14 -9 -27 -72 -15 -72 15 0 33 -62 21 -74 -7 -7 -10 -6
-10 2 0 6 -7 9 -15 6 -8 -4 -15 -2 -16 2 -8 97 -26 133 -25 50 1 -30 4 -53 7
-53 4 1 15 -9 27 -23 17 -21 22 -22 36 -11 10 9 16 10 16 2 0 -6 -4 -11 -10
-11 -5 0 -10 -9 -10 -20 0 -11 -4 -20 -10 -20 -5 0 -10 8 -10 18 0 21 -37 55
-45 42 -4 -6 -3 -15 1 -22 5 -7 3 -8 -5 -3 -7 4 -5 -4 4 -19 22 -33 27 -33 19
-1 -8 32 4 33 16 1 6 -16 5 -35 -2 -54 -11 -28 -13 -29 -25 -14 -10 15 -12 9
-13 -35 0 -64 -15 -71 -16 -9 -2 58 -11 83 -25 69 -7 -7 -8 -17 -3 -25 12 -19
13 -37 3 -44 -5 -3 -7 -10 -4 -15 4 -5 -1 -16 -9 -25 -9 -8 -16 -20 -16 -26 0
-6 3 -8 7 -5 7 8 33 -11 33 -24 0 -5 -5 -9 -11 -9 -5 0 -7 5 -4 10 9 14 -8 12
-24 -2 -11 -11 -13 -10 -8 4 3 9 -3 26 -14 39 -11 12 -22 33 -25 45 -3 12 -12
25 -20 28 -8 3 -14 15 -14 26 0 12 5 18 10 15 6 -4 8 -10 6 -14 -3 -4 3 -12
13 -18 16 -10 18 -5 17 64 0 42 -2 71 -4 65 -2 -6 -10 -8 -18 -5 -8 3 -14 -1
-14 -8 0 -8 -8 -23 -17 -34 -13 -16 -15 -17 -10 -2 11 29 -20 20 -32 -10 -8
-19 -10 -21 -7 -6 3 15 0 20 -10 16 -8 -3 -14 -14 -14 -25 0 -13 -5 -18 -13
-15 -10 4 -13 -5 -12 -33 1 -31 -2 -37 -14 -32 -13 5 -14 3 -3 -10 7 -8 10
-23 6 -32 -4 -10 -1 -16 7 -16 7 0 9 -3 6 -6 -4 -4 -13 -1 -22 6 -12 10 -13
16 -4 26 9 11 6 14 -17 15 -16 0 -23 3 -16 6 10 4 10 8 0 21 -11 13 -11 14 0
8 11 -7 12 -4 3 12 -9 16 -8 61 1 66 2 1 14 7 28 14 16 8 18 10 5 7 -18 -4
-20 1 -23 66 -2 49 0 69 7 64 6 -3 11 -15 11 -26 0 -10 4 -19 9 -19 12 0 1 83
-13 92 -8 5 -7 8 2 8 9 0 10 5 2 19 -5 11 -10 31 -10 45 0 14 -5 26 -11 26 -6
0 -8 -7 -5 -16 3 -8 2 -12 -4 -9 -6 3 -10 15 -10 25 0 22 -39 62 -52 54 -4 -3
-8 -1 -8 5 0 6 -6 8 -14 5 -8 -3 -17 -1 -21 5 -3 6 -1 11 4 11 17 0 13 17 -5
24 -8 3 -13 2 -9 -3 3 -5 1 -20 -4 -33 -7 -19 -4 -26 16 -42 25 -18 25 -18 18
3 -7 24 7 28 24 7 9 -11 8 -15 -5 -20 -15 -6 -15 -8 1 -26 10 -11 16 -23 12
-26 -3 -3 -11 4 -17 16 -9 17 -14 19 -26 9 -8 -6 -17 -9 -21 -5 -3 3 -1 6 5 6
17 0 15 27 -3 33 -8 4 -17 1 -21 -5 -4 -7 -9 -6 -15 3 -8 12 -10 12 -18 0 -6
-9 -11 -10 -15 -2 -5 8 -12 7 -22 -3 -8 -9 -21 -13 -29 -10 -9 4 -15 0 -15 -7
0 -8 -9 0 -19 17 -22 36 -39 50 -38 31 0 -6 -1 -23 -2 -37 -1 -23 -3 -24 -15
-8 -7 10 -16 15 -19 12 -3 -3 -3 4 0 17 4 14 2 20 -4 16 -6 -4 -8 3 -5 18 2
15 0 25 -7 25 -6 0 -11 -10 -11 -22 0 -17 -3 -19 -9 -10 -4 8 -11 13 -15 13
-19 -3 -25 1 -31 19 -4 11 -11 18 -16 14 -14 -8 -70 16 -63 27 3 5 9 7 14 4 9
-6 20 18 20 45 0 18 -26 35 -32 20 -2 -4 -9 -2 -16 6 -11 12 -10 14 5 15 10 1
21 1 25 0 4 0 23 9 41 22 36 23 65 43 59 41 -6 -3 -72 63 -72 72 0 15 -110 16
-144 3 -17 -7 -38 -21 -47 -31 -9 -10 -19 -15 -22 -12 -3 3 -8 -4 -12 -15 -4
-12 -12 -18 -21 -14 -9 3 -13 0 -11 -8 2 -8 2 -11 0 -6 -3 4 -9 5 -14 2 -5 -4
-6 1 -3 9 4 9 1 16 -6 16 -7 0 -10 8 -8 18 4 12 -2 17 -19 18 -12 1 -20 -2
-17 -7 3 -5 -2 -6 -11 -2 -9 3 -13 9 -8 12 14 10 14 51 0 51 -14 0 -15 38 -2
60 5 8 4 11 -2 7 -18 -12 -9 54 10 68 21 15 22 26 3 19 -8 -3 -17 0 -22 7 -4
7 -3 10 3 6 6 -4 16 0 22 7 8 9 8 17 2 20 -5 3 -12 0 -14 -6 -4 -10 -6 -10 -6
0 -1 7 10 17 24 22 14 5 25 12 25 14 0 3 -6 3 -14 0 -8 -3 -17 0 -22 7 -4 8
-3 10 4 5 11 -7 16 7 15 42 -1 6 5 12 12 12 7 0 16 -6 18 -12 3 -8 6 -6 6 5 1
16 -11 22 -33 18 -5 -1 -4 5 4 13 7 9 9 16 6 16 -4 0 -2 9 4 20 7 12 16 18 23
13 9 -5 9 -3 1 8 -6 8 -14 21 -17 29 -4 9 -6 5 -4 -9 1 -13 -3 -26 -9 -28 -13
-4 -10 38 5 93 6 21 5 36 -2 43 -6 6 -7 11 -3 11 5 0 15 -8 23 -17 8 -10 11
-12 7 -4 -5 11 -3 13 9 8 10 -3 17 -2 17 3 0 6 -7 10 -15 10 -15 0 -21 31 -8
44 10 10 13 37 3 31 -4 -3 -13 8 -18 25 -7 18 -7 32 -1 35 14 9 11 45 -3 45
-8 0 -9 3 -3 8 12 9 20 46 8 39 -4 -2 -16 -2 -25 2 -15 5 -15 8 -1 26 14 18
15 19 9 1 -5 -16 -4 -17 9 -6 8 7 12 17 8 23 -3 6 -1 7 5 3 7 -4 12 -1 12 6 0
9 3 9 10 -2 8 -13 10 -12 10 3 0 22 18 22 42 0 10 -9 18 -11 18 -6 0 13 32 12
43 -2 6 -7 10 -6 13 1 3 6 20 10 39 8 24 -1 38 3 44 14 8 14 10 13 8 -5 -1
-16 -8 -23 -21 -23 -16 0 -17 -3 -8 -12 7 -7 12 -20 12 -31 0 -12 4 -16 13
-11 6 4 3 -2 -7 -14 -12 -13 -14 -22 -7 -22 8 0 9 -5 2 -17 -6 -11 -5 -26 1
-42 5 -14 6 -37 3 -51 -4 -19 -3 -21 5 -10 7 11 10 11 10 2 0 -7 4 -11 8 -8 4
2 14 0 22 -6 13 -8 12 -9 -2 -5 -10 4 -18 -1 -21 -14 -3 -13 0 -19 11 -21 10
0 22 -2 29 -2 6 -1 15 -5 20 -10 4 -5 3 -6 -4 -2 -7 4 -13 2 -13 -3 0 -18 20
-12 26 7 3 9 9 24 14 33 4 8 4 23 -2 32 -15 28 12 20 38 -10 13 -16 28 -29 34
-29 5 -1 18 -2 28 -4 10 -1 12 -3 5 -7 -7 -2 -13 -9 -13 -14 0 -14 20 -11 37
6 18 18 39 14 35 -6 -1 -9 3 -8 11 3 8 10 17 15 21 11 3 -4 14 -8 24 -9 9 -1
35 -5 57 -8 25 -4 42 -1 46 6 4 7 24 11 44 10 20 -2 45 0 56 3 28 9 24 42 -7
49 -14 4 -23 12 -21 19 5 16 46 11 67 -8 22 -20 34 -19 26 1 -5 12 -2 15 10
10 10 -4 26 1 37 11 11 10 18 13 14 7 -3 -6 0 -20 8 -30 13 -17 14 -18 15 -1
0 9 2 17 4 17 2 0 13 3 23 6 15 5 15 4 3 -5 -8 -5 -12 -13 -9 -16 10 -10 39 6
39 22 0 8 5 11 10 8 6 -4 7 -11 4 -17 -5 -8 4 -9 27 -4 19 3 36 11 37 16 2 6
10 10 18 10 8 0 14 5 14 10 0 17 38 11 43 -7 3 -12 5 -8 6 9 0 14 -4 28 -10
30 -5 2 -12 12 -14 23 -2 11 -4 22 -5 25 -3 7 -7 23 -8 36 -3 18 -69 84 -77
76 -4 -4 -4 4 -1 18 6 21 5 22 -4 8 -6 -10 -19 -18 -28 -18 -15 0 -15 2 -2 10
15 10 13 11 -29 13 -13 1 -26 9 -28 17 -4 13 -3 13 6 0 13 -18 15 -1 2 18 -7
11 -9 10 -14 -3 -6 -14 -9 -14 -39 2 -38 20 -60 25 -52 12 7 -11 -11 -12 -34
0 -38 19 -82 29 -88 20 -3 -5 -9 -9 -14 -9 -14 0 2 41 21 53 11 7 19 18 19 25
0 10 5 10 21 2 14 -8 29 -8 50 -1 16 5 29 6 29 2 0 -4 7 -8 15 -8 8 0 15 4 15
8 0 10 77 6 105 -5 59 -22 95 -42 95 -52 0 -13 53 -26 74 -18 9 3 20 -3 28
-15 17 -28 24 -26 33 6 5 21 8 24 16 12 7 -11 9 -9 9 10 0 16 4 21 15 17 8 -3
15 -1 15 5 0 13 -21 33 -40 37 -20 5 -60 43 -60 57 0 6 -11 22 -25 35 -14 13
-25 20 -25 16 0 -4 -10 2 -22 14 -20 19 -33 24 -50 21 -5 0 -8 4 -8 9 0 6 -7
10 -15 10 -8 0 -24 15 -35 33 -11 17 -20 25 -20 17 -1 -11 -4 -10 -15 4 -8 11
-15 16 -15 10 0 -5 -10 2 -21 16 -11 14 -18 19 -14 13 3 -7 2 -13 -2 -13 -5 0
-15 6 -22 13 -11 10 -13 10 -7 0 4 -7 2 -13 -3 -13 -6 0 -11 5 -11 10 0 6 -5
10 -11 10 -5 0 -7 -4 -4 -10 4 -6 -8 -10 -29 -10 -20 0 -36 4 -36 10 0 10 -81
-28 -91 -43 -4 -5 -12 -6 -19 -2 -9 6 -11 4 -5 -5 6 -10 4 -12 -8 -7 -9 3 -17
1 -19 -4 -2 -6 -25 -11 -51 -12 -26 -1 -47 -5 -47 -9 0 -4 -12 -3 -26 2 -33
13 -47 13 -39 0 6 -10 -12 -14 -52 -10 -13 1 -23 -4 -23 -10 0 -6 -4 -8 -10
-5 -5 3 -10 1 -10 -6 0 -18 -64 -69 -74 -59 -4 4 -15 6 -22 3 -8 -3 -14 -1
-14 3 0 12 -45 64 -56 64 -4 0 -3 -5 4 -12 7 -7 12 -18 12 -26 0 -12 -5 -11
-26 3 -15 9 -24 13 -20 7 9 -15 -4 -43 -17 -35 -5 3 -7 1 -4 -5 4 -5 4 -18 1
-27 -5 -12 -9 -14 -14 -4 -6 9 -17 3 -39 -22 -17 -18 -31 -28 -31 -22 0 7 5
15 10 18 6 3 10 12 10 18 0 7 -7 3 -15 -7 -9 -11 -12 -29 -9 -39 5 -16 3 -19
-10 -14 -9 4 -16 2 -16 -3 0 -5 -6 -7 -14 -4 -8 3 -12 13 -10 22 3 10 0 9 -8
-4 -7 -12 -19 -19 -26 -17 -6 3 -10 8 -7 13 3 4 -5 5 -17 2 -22 -5 -22 -6 7
-18 16 -6 34 -10 41 -7 12 4 29 -26 19 -35 -3 -3 -5 0 -5 7 0 8 -7 10 -19 6
-11 -3 -23 -1 -26 6 -6 8 -10 7 -16 -2 -6 -10 -9 -11 -9 -1 0 6 -9 12 -20 12
-21 0 -27 15 -10 25 15 9 -1 37 -18 30 -13 -5 -13 -3 -1 12 8 9 9 14 2 10 -7
-4 -13 0 -16 10 -4 14 -5 13 -6 -4 0 -12 -5 -24 -9 -27 -11 -6 -43 30 -34 39
3 3 -7 18 -23 32 l-28 27 7 -28 c7 -27 6 -27 -10 -11 -15 15 -16 20 -4 39 12
19 12 20 -3 7 -26 -21 -51 3 -35 33 10 18 9 19 -4 9 -8 -7 -18 -10 -22 -6 -4
4 -11 1 -16 -7 -7 -11 -8 -6 -6 16 2 17 0 37 -5 45 -7 12 -9 12 -10 -1 -1 -8
-1 -21 0 -29 2 -11 0 -11 -12 0 -11 10 -12 19 -5 32 5 9 6 21 3 26 -3 5 -1 20
4 33 7 17 10 18 10 6 1 -10 6 -18 12 -18 8 0 8 -5 -1 -15 -7 -9 -8 -15 -2 -15
5 0 13 8 17 18 6 15 8 15 19 -6 l12 -23 13 27 c11 24 10 26 -3 14 -12 -9 -16
-10 -16 0 0 7 -7 10 -15 6 -8 -3 -15 -1 -15 4 0 6 5 10 10 10 6 0 10 5 10 11
0 6 -6 9 -14 6 -7 -3 -18 -1 -23 4 -12 12 -56 -43 -60 -74 -3 -20 -2 -21 11
-5 7 10 16 15 19 12 3 -4 -1 -13 -9 -22 -14 -13 -17 -13 -32 2 -9 9 -11 16 -5
16 13 0 12 32 -2 43 -6 5 -4 7 5 5 8 -2 25 7 38 20 12 12 18 22 14 22 -5 0 -9
7 -9 15 0 8 4 15 9 15 4 0 8 -7 8 -15 0 -8 7 -15 16 -15 8 0 12 5 9 10 -3 6
-1 10 5 10 6 0 9 4 6 9 -3 5 3 20 14 34 19 24 19 27 4 35 -11 6 -13 11 -5 16
6 4 11 2 11 -3 0 -6 10 -11 23 -11 17 0 19 2 7 10 -12 7 -12 12 4 29 10 11 15
25 11 31 -4 6 7 16 26 24 20 8 27 15 18 18 -8 3 -27 -1 -42 -9 -26 -13 -27
-13 -16 5 12 19 40 22 73 7 16 -7 17 -9 2 -17 -9 -5 -13 -15 -9 -21 4 -7 0 -6
-10 2 -9 7 -17 11 -17 8 0 -3 -3 -13 -6 -21 -5 -12 -2 -15 10 -10 9 3 28 -2
44 -11 15 -10 24 -14 20 -10 -4 5 -3 14 3 22 8 9 8 13 1 13 -6 0 -9 9 -7 19 2
11 -3 22 -11 25 -8 3 -14 13 -14 22 0 9 -6 14 -13 11 -8 -3 -14 3 -14 15 -1
14 1 17 10 9 13 -10 63 -8 75 4 4 4 -8 5 -25 2 -18 -3 -33 -1 -33 4 0 5 7 9
16 9 13 0 14 3 4 15 -6 8 -8 20 -4 26 5 8 3 9 -5 5 -7 -5 -16 -18 -21 -30 -8
-19 -9 -19 -9 7 -1 15 4 27 10 27 6 0 4 7 -5 15 -14 14 -13 18 4 35 27 27 26
44 -2 37 -22 -6 -22 -6 -3 9 17 12 20 12 28 -1 4 -8 5 -20 2 -25 -3 -6 -2 -10
3 -10 6 0 12 7 16 15 3 8 1 15 -4 15 -6 0 -9 5 -8 12 2 7 -7 13 -20 14 -27 2
-43 14 -19 14 10 0 17 8 17 21 0 11 5 17 10 14 14 -9 12 5 -4 38 -11 19 -12
27 -3 27 8 0 8 3 -2 9 -9 6 -10 11 -2 15 6 4 11 2 11 -3 0 -17 37 -13 44 5 4
9 13 14 21 10 8 -3 14 -2 14 2 -3 20 2 25 12 12 8 -11 9 -9 4 10 -11 40 -11
45 4 42 9 -2 12 4 8 17 -3 11 0 22 7 25 7 3 4 9 -8 17 -15 9 -16 13 -5 20 16
10 35 12 26 3 -9 -9 11 -44 25 -44 6 0 6 6 -3 16 -13 16 -25 64 -13 51 4 -3
22 0 40 8 19 8 34 11 34 8 0 -3 7 1 17 8 15 13 15 12 4 -9 -7 -13 -10 -26 -7
-30 3 -3 6 0 6 7 0 7 5 9 12 5 6 -4 8 -3 5 3 -4 6 1 17 11 25 24 21 46 33 39
22 -11 -18 10 -37 29 -29 18 8 18 8 1 12 -32 8 -9 19 32 15 23 -2 38 -8 35
-13 -3 -5 2 -6 10 -3 9 3 16 11 16 16 0 6 6 6 14 -1 11 -9 15 -9 19 1 4 10 8
10 17 -2 9 -12 10 -11 6 6 -5 14 -2 21 9 21 8 0 15 -3 15 -6z m345 -41 c3 -5
1 -10 -4 -10 -6 0 -11 5 -11 10 0 6 2 10 4 10 3 0 8 -4 11 -10z m-757 -96
c-11 -24 -53 -35 -45 -11 2 6 9 12 15 12 5 0 14 4 19 9 5 5 3 6 -4 2 -7 -4
-13 -3 -13 2 0 14 11 21 25 15 11 -4 11 -10 3 -29z m-37 -74 c6 0 7 5 4 10 -3
6 1 10 9 10 10 0 13 -6 10 -15 -4 -8 -11 -15 -17 -15 -6 0 -20 -8 -31 -17 -21
-18 -21 -18 -5 2 9 11 15 26 13 33 -1 7 0 8 3 2 2 -5 9 -10 14 -10z m1084 -10
c3 -5 1 -10 -4 -10 -6 0 -11 5 -11 10 0 6 2 10 4 10 3 0 8 -4 11 -10z m35 -53
c4 1 11 -4 14 -13 9 -24 -31 2 -44 29 -11 22 -11 22 5 2 9 -11 20 -19 25 -18z
m-10 -32 c11 -13 10 -14 -4 -9 -9 3 -16 10 -16 15 0 13 6 11 20 -6z m-1217
-17 c-10 -11 -12 -18 -5 -18 7 0 12 -7 12 -15 0 -8 -6 -12 -13 -9 -21 8 -17
60 4 60 17 0 17 -2 2 -18z m-48 2 c3 -5 1 -10 -4 -10 -6 0 -11 5 -11 10 0 6 2
10 4 10 3 0 8 -4 11 -10z m-37 -31 c3 -12 2 -12 -6 0 -6 8 -15 10 -22 6 -9 -5
-11 -4 -6 4 10 15 28 10 34 -10z m1369 -24 c1 -11 -17 -8 -30 4 -4 4 0 7 10 6
10 0 19 -5 20 -10z m-1362 -5 c-3 -5 -12 -10 -18 -10 -7 0 -6 4 3 10 19 12 23
12 15 0z m58 3 c3 -5 -6 -9 -20 -10 -19 -1 -22 1 -12 8 17 11 26 11 32 2z m47
-57 c0 -2 -7 -9 -15 -16 -13 -11 -14 -10 -9 4 5 14 24 23 24 12z m1293 -41 c4
-8 3 -16 -1 -19 -4 -3 -9 4 -9 15 -2 23 3 25 10 4z m-1420 -42 c-7 -2 -19 -2
-25 0 -7 3 -2 5 12 5 14 0 19 -2 13 -5z m107 -8 c0 -2 -10 -10 -22 -16 -21
-11 -22 -11 -9 4 13 16 31 23 31 12z m-10 -45 c0 -5 -5 -10 -11 -10 -5 0 -7 5
-4 10 3 6 8 10 11 10 2 0 4 -4 4 -10z m1330 -60 c0 -5 -2 -10 -4 -10 -3 0 -8
5 -11 10 -3 6 -1 10 4 10 6 0 11 -4 11 -10z m-1260 -50 c0 -5 -2 -10 -4 -10
-3 0 -8 5 -11 10 -3 6 -1 10 4 10 6 0 11 -4 11 -10z m-183 -116 c-3 -3 -12 -4
-19 -1 -8 3 -5 6 6 6 11 1 17 -2 13 -5z m-87 -154 c0 -5 -5 -10 -11 -10 -5 0
-7 5 -4 10 3 6 8 10 11 10 2 0 4 -4 4 -10z m35 -40 c-3 -5 -12 -10 -18 -10 -7
0 -6 4 3 10 19 12 23 12 15 0z m105 -60 c6 -11 8 -20 6 -20 -3 0 -10 9 -16 20
-6 11 -8 20 -6 20 3 0 10 -9 16 -20z m955 -160 c-3 -5 -12 -10 -18 -10 -7 0
-6 4 3 10 19 12 23 12 15 0z m-1322 -155 c8 -18 -11 -31 -25 -17 -11 11 -3 32
12 32 4 0 10 -7 13 -15z m2168 -73 c0 -9 3 -26 5 -37 12 -53 16 -276 5 -336
-6 -35 -14 -77 -16 -94 -19 -101 -59 -260 -81 -320 -28 -76 -28 -78 -18 -147
6 -41 3 -53 -17 -82 -24 -36 -93 -86 -117 -86 -12 0 -14 12 -9 60 3 34 10 66
15 73 5 7 15 44 21 82 18 121 31 198 42 247 6 25 12 68 14 95 5 64 16 305 15
318 -1 6 -3 53 -5 105 -3 89 -2 97 22 130 14 19 35 43 47 53 20 18 21 18 48
-12 16 -17 28 -39 29 -49z m-811 58 c0 -5 -7 -10 -15 -10 -8 0 -15 5 -15 10 0
6 7 10 15 10 8 0 15 -4 15 -10z m161 -33 c20 -24 25 -47 9 -47 -5 0 -10 -6
-10 -13 0 -14 -61 -37 -99 -37 -26 0 -26 -1 4 51 14 24 25 52 25 63 0 15 5 17
26 12 15 -4 35 -17 45 -29z m-1402 -3 c22 -18 31 -35 31 -56 0 -22 -4 -29 -15
-25 -8 4 -17 2 -20 -3 -4 -6 -26 -10 -51 -10 l-45 0 26 43 c14 24 25 51 25 60
0 24 14 21 49 -9z m826 -75 c4 -11 4 -23 1 -26 -3 -4 -1 -12 6 -20 13 -16 5
-28 -12 -18 -7 4 -10 20 -7 39 l6 31 -15 -30 c-13 -26 -14 -27 -10 -5 3 14 6
31 6 38 0 20 18 14 25 -9z m725 -43 c0 -3 -4 -8 -10 -11 -5 -3 -10 -1 -10 4 0
6 5 11 10 11 6 0 10 -2 10 -4z m-1493 -12 c-3 -3 -12 -4 -19 -1 -8 3 -5 6 6 6
11 1 17 -2 13 -5z m481 -24 c7 -11 9 -20 4 -20 -4 0 -13 9 -20 20 -7 11 -9 20
-4 20 4 0 13 -9 20 -20z m322 -26 c0 -8 -6 -11 -17 -7 -11 4 -14 3 -9 -5 5 -8
0 -12 -13 -12 -20 0 -20 1 -3 18 20 21 42 24 42 6z m-830 -99 c0 -8 -4 -15
-10 -15 -5 0 -10 7 -10 15 0 8 5 15 10 15 6 0 10 -7 10 -15z m-30 -6 c0 -6 -6
-9 -14 -6 -8 3 -17 1 -20 -6 -2 -7 -5 -4 -5 6 -1 11 6 17 19 17 11 0 20 -5 20
-11z m-100 -9 c0 -5 -4 -10 -10 -10 -5 0 -10 5 -10 10 0 6 5 10 10 10 6 0 10
-4 10 -10z m50 -20 c0 -5 -4 -10 -10 -10 -5 0 -10 5 -10 10 0 6 5 10 10 10 6
0 10 -4 10 -10z m80 -100 c0 -5 -5 -10 -11 -10 -5 0 -7 5 -4 10 3 6 8 10 11
10 2 0 4 -4 4 -10z m-77 -47 c-7 -2 -21 -2 -30 0 -10 3 -4 5 12 5 17 0 24 -2
18 -5z m-233 -57 c0 -2 -8 -10 -17 -17 -16 -13 -17 -12 -4 4 13 16 21 21 21
13z m110 -16 c0 -5 -2 -10 -4 -10 -3 0 -8 5 -11 10 -3 6 -1 10 4 10 6 0 11 -4
11 -10z m140 -20 c0 -6 -5 -10 -11 -10 -5 0 -7 5 -3 11 5 8 1 8 -14 0 -26 -14
-43 -14 -19 0 9 6 15 15 11 21 -4 6 2 6 15 -1 11 -7 21 -16 21 -21z m-86 -5
c6 -16 66 -16 111 0 18 6 18 5 3 -5 -17 -10 -16 -13 8 -35 24 -22 24 -30 2
-26 -4 0 -5 -5 -3 -12 3 -6 -6 -24 -19 -38 -13 -14 -32 -41 -41 -60 -10 -19
-23 -37 -29 -41 -6 -4 -8 -8 -3 -8 4 0 1 -12 -6 -27 -8 -16 -14 -45 -13 -65 1
-21 -3 -38 -9 -38 -5 0 -3 -4 5 -9 8 -6 18 -7 24 -4 5 3 6 1 2 -5 -4 -6 -12
-9 -19 -6 -15 5 -60 -30 -50 -40 3 -3 1 -6 -5 -6 -5 0 -12 5 -14 11 -5 15 -38
0 -38 -18 0 -8 -4 -12 -10 -8 -5 3 -6 13 -3 23 6 15 5 15 -11 3 -15 -12 -19
-12 -32 1 -14 14 -11 15 27 13 38 -2 41 -1 25 11 -10 7 -24 10 -32 7 -8 -3
-14 0 -14 6 0 6 5 11 10 11 6 0 10 4 10 8 0 15 -38 6 -60 -13 -11 -10 -20 -13
-20 -7 0 7 5 12 10 12 6 0 10 5 10 11 0 6 -9 8 -21 4 -15 -5 -19 -4 -15 4 4 6
14 11 22 11 8 0 14 5 14 11 0 5 -4 8 -8 5 -4 -2 -14 0 -22 6 -12 8 -12 9 3 4
9 -3 17 -1 17 4 0 6 -9 10 -21 10 -11 0 -17 5 -14 10 4 6 11 7 17 4 7 -4 8 -2
4 5 -4 6 -11 9 -16 6 -18 -11 -21 17 -3 37 10 12 12 18 6 14 -19 -11 -15 5 5
20 9 7 12 14 7 14 -6 0 -10 18 -10 40 0 29 -3 39 -12 36 -7 -3 -13 -2 -13 2 0
15 31 52 43 51 9 0 9 -2 0 -6 -16 -6 -17 -30 -1 -39 8 -5 9 -2 5 9 -5 14 -2
16 16 14 12 -2 16 -2 10 0 -22 7 -14 25 7 18 21 -7 28 10 8 18 -7 3 2 6 20 6
32 1 43 15 20 24 -8 4 -7 6 4 6 10 1 21 -12 28 -34 12 -35 30 -48 30 -20 0 8
-4 15 -9 15 -5 0 -11 9 -14 20 -3 13 1 21 16 26 13 4 23 2 25 -5 2 -6 13 -16
25 -23 21 -11 21 -11 4 16 -10 14 -13 26 -8 26 5 0 11 -7 15 -15z m-184 -2
c-8 -3 -24 -10 -35 -15 -20 -9 -20 -9 -1 6 11 9 27 16 35 15 14 0 14 -1 1 -6z
m324 -18 c-4 -8 -1 -15 7 -15 7 0 9 -3 6 -6 -4 -4 -14 -1 -22 6 -13 11 -13 15
-3 21 18 12 18 11 12 -6z m-350 -26 c-31 -12 -40 -9 -20 6 10 8 24 11 29 8 6
-4 2 -10 -9 -14z m-42 -34 c0 -5 -5 -11 -10 -13 -5 -1 -9 4 -9 13 0 9 4 14 9
13 5 -2 10 -8 10 -13z m1125 -200 c3 -9 12 -14 21 -13 8 2 16 -3 18 -10 1 -7
0 -8 -2 -3 -5 10 -42 3 -60 -10 -6 -5 -14 -6 -17 -3 -3 4 -9 -5 -12 -19 -10
-37 -73 -58 -83 -28 -3 8 3 12 19 9 21 -3 24 1 24 30 0 17 -3 32 -7 32 -5 0
-8 -4 -8 -10 0 -5 -8 -6 -17 -3 -13 5 -15 2 -10 -11 4 -9 3 -15 -2 -12 -16 11
-19 46 -4 54 8 5 41 9 74 10 45 1 61 -2 66 -13z m-103 -61 c3 -8 2 -12 -4 -9
-6 3 -10 10 -10 16 0 14 7 11 14 -7z m81 -24 c3 -5 -1 -10 -9 -10 -9 0 -16 5
-16 10 0 6 4 10 9 10 6 0 13 -4 16 -10z m32 -42 c-3 -8 -6 -5 -6 6 -1 11 2 17
5 13 3 -3 4 -12 1 -19z m-10 -140 c-3 -8 -6 -5 -6 6 -1 11 2 17 5 13 3 -3 4
-12 1 -19z m344 -30 c11 -21 11 -22 -4 -9 -10 7 -17 17 -17 22 0 15 9 10 21
-13z m154 12 c3 -6 -1 -7 -9 -4 -18 7 -21 14 -7 14 6 0 13 -4 16 -10z m-315
-34 c0 -28 15 -50 29 -42 6 4 11 3 11 -3 0 -5 -8 -15 -17 -21 -13 -8 -14 -13
-5 -16 6 -3 12 -10 12 -15 0 -13 -46 -11 -83 4 -18 8 -35 14 -40 15 -4 1 -28
10 -54 22 -26 11 -64 21 -86 23 -34 2 -41 6 -44 27 -2 17 0 21 6 11 6 -9 11
-10 15 -2 7 10 38 8 76 -6 8 -3 34 -7 56 -8 37 -2 41 -1 36 18 -3 13 -1 18 6
14 5 -4 21 -3 34 2 31 11 48 3 48 -23z m50 -6 c0 -11 -2 -20 -4 -20 -2 0 -6 9
-9 20 -3 11 -1 20 4 20 5 0 9 -9 9 -20z m200 -6 c0 -8 -5 -12 -10 -9 -6 4 -8
11 -5 16 9 14 15 11 15 -7z m-705 -32 c5 -13 2 -13 -15 3 -12 11 -20 13 -20 6
0 -7 -5 -9 -11 -5 -8 4 -7 9 2 14 16 11 36 2 44 -18z m127 6 c-7 -7 -12 -8
-12 -2 0 14 12 26 19 19 2 -3 -1 -11 -7 -17z m35 0 c-3 -8 -6 -5 -6 6 -1 11 2
17 5 13 3 -3 4 -12 1 -19z m483 -2 c0 -3 -4 -8 -10 -11 -5 -3 -10 -1 -10 4 0
6 5 11 10 11 6 0 10 -2 10 -4z m-540 -16 c0 -5 -4 -10 -10 -10 -5 0 -10 5 -10
10 0 6 5 10 10 10 6 0 10 -4 10 -10z m420 -60 c0 -5 -4 -10 -10 -10 -5 0 -10
5 -10 10 0 6 5 10 10 10 6 0 10 -4 10 -10z m-152 -92 c-2 -17 -9 -22 -23 -20
-24 4 -41 19 -32 28 4 4 13 1 22 -6 12 -10 15 -10 15 4 0 9 5 16 11 16 6 0 9
-10 7 -22z m52 2 c0 8 2 11 5 8 10 -9 -7 -38 -22 -38 -9 0 -13 -6 -10 -14 4
-10 1 -13 -9 -9 -11 4 -12 9 -5 16 6 6 11 20 11 30 0 16 3 17 15 7 12 -10 15
-10 15 0z m65 0 c3 -5 -1 -10 -9 -10 -9 0 -16 5 -16 10 0 6 4 10 9 10 6 0 13
-4 16 -10z m157 -48 c8 4 21 2 29 -3 12 -7 12 -9 -1 -10 -8 -1 -21 -1 -29 0
-7 2 -10 -2 -6 -8 3 -6 16 -11 28 -11 12 0 28 -9 35 -20 8 -14 9 -20 1 -20 -7
0 -8 -7 -4 -17 4 -10 12 -38 16 -63 9 -40 7 -47 -12 -62 -12 -10 -17 -18 -11
-18 6 0 6 -14 -1 -42 -8 -31 -7 -43 1 -46 19 -6 14 -22 -7 -22 -10 0 -21 -6
-24 -13 -4 -10 2 -13 17 -10 15 3 25 -1 29 -11 6 -14 3 -15 -15 -5 -15 8 -23
9 -26 1 -2 -7 -13 -7 -33 -2 -18 5 -27 5 -24 -1 4 -5 14 -9 23 -9 13 0 13 -3
4 -12 -10 -10 -17 -10 -33 0 -12 8 -23 11 -26 9 -3 -3 5 -10 16 -16 11 -7 18
-17 15 -25 -4 -11 0 -13 15 -9 15 4 21 1 21 -11 0 -12 -5 -14 -24 -6 -17 6
-29 5 -42 -6 -15 -11 -16 -13 -3 -8 20 6 34 -11 18 -22 -8 -4 -9 -3 -5 4 4 7
3 12 -3 12 -16 0 -33 -38 -21 -45 14 -9 13 -35 -2 -35 -6 0 -9 3 -5 6 3 4 -1
14 -10 22 -10 11 -12 17 -4 20 6 2 9 8 5 13 -3 5 0 9 7 9 18 0 -5 23 -26 26
-12 2 -13 -2 -4 -18 8 -15 8 -22 0 -28 -9 -5 -8 -10 3 -19 12 -10 12 -16 -1
-41 -13 -26 -18 -29 -54 -26 -21 2 -42 -1 -46 -6 -3 -6 -1 -8 5 -5 5 4 20 3
33 -1 22 -9 22 -9 -8 -32 -20 -14 -29 -28 -25 -38 3 -10 1 -13 -6 -8 -7 4 -10
18 -8 31 3 17 1 22 -10 18 -9 -3 -12 -13 -8 -32 4 -14 3 -23 -1 -19 -5 4 -15
2 -23 -5 -13 -10 -14 -9 -3 10 10 20 9 22 -6 16 -16 -6 -17 -5 -3 13 11 15 9
14 -11 -3 -28 -25 -75 -22 -64 5 4 12 -1 13 -25 9 -30 -7 -35 -1 -30 33 1 10
-3 9 -14 -5 l-16 -20 7 20 c6 20 6 20 -15 1 -12 -11 -22 -26 -22 -33 0 -8 -5
-13 -11 -11 -6 2 -9 7 -7 11 2 5 -5 13 -14 18 -10 5 -15 18 -13 29 2 11 -1 20
-6 20 -6 0 -7 5 -4 10 3 6 -1 10 -9 10 -9 0 -16 4 -16 8 0 9 69 3 85 -7 6 -3
3 1 -7 11 -10 9 -26 14 -37 11 -10 -3 -22 0 -26 7 -5 8 -11 6 -21 -7 -13 -17
-13 -17 -14 5 0 12 5 22 10 22 14 0 12 33 -2 50 -11 12 -10 12 5 1 9 -8 20
-11 24 -8 3 4 11 2 18 -3 9 -7 11 -2 10 18 -1 25 1 28 27 24 21 -3 28 0 28 13
0 14 -3 15 -14 6 -9 -8 -16 -8 -20 -2 -9 13 11 24 31 17 9 -4 25 2 37 11 15
13 17 14 8 2 -9 -13 -9 -16 3 -16 7 0 14 3 13 6 -2 23 4 38 17 38 8 0 12 -4 9
-9 -5 -8 10 -12 30 -9 4 1 16 -4 25 -11 14 -12 15 -11 2 5 -7 9 -20 17 -27 17
-8 0 -14 10 -14 23 0 16 3 18 9 8 6 -10 10 -10 16 -1 5 8 10 9 14 2 4 -7 12
-8 21 -2 13 8 13 10 -1 10 -22 0 -32 27 -13 34 8 3 14 12 14 20 0 9 7 13 20
11 11 -2 20 0 20 6 0 5 7 9 15 9 12 0 13 4 5 19 -15 29 -12 37 6 15 8 -10 12
-13 8 -5 -5 11 -2 13 14 9 12 -4 22 -2 22 3 0 5 -7 9 -15 9 -8 0 -15 7 -15 15
0 8 5 15 11 15 5 0 8 -4 5 -9 -3 -4 6 -6 19 -3 28 5 33 27 10 36 -18 7 -20
-10 -2 -18 6 -3 0 -4 -15 -1 -15 3 -29 1 -33 -4 -3 -5 -19 -9 -35 -9 -16 1
-35 -4 -42 -10 -8 -6 -19 -7 -28 -2 -12 7 -12 11 1 26 9 12 10 15 1 10 -7 -4
-12 -4 -11 1 1 4 1 22 -1 38 -1 26 -3 27 -10 10 -8 -18 -9 -18 -10 5 -2 24 -2
24 -8 3 -6 -18 -10 -13 -23 28 -8 27 -12 49 -7 49 5 0 11 -14 15 -31 4 -19 9
-27 15 -21 6 6 6 18 -2 32 -6 12 -9 24 -6 28 3 3 6 0 6 -7 0 -7 4 -9 10 -6 6
3 7 -1 4 -9 -3 -9 -3 -16 1 -16 10 0 31 23 37 40 3 11 6 11 11 -3 3 -9 2 -17
-3 -17 -6 0 -10 -5 -10 -11 0 -5 5 -7 12 -3 7 4 8 3 4 -4 -4 -6 -13 -9 -20 -6
-7 3 -19 -3 -27 -12 -12 -15 -12 -16 8 -10 12 4 24 2 28 -4 3 -5 2 -10 -3 -10
-14 0 -11 -48 4 -61 16 -13 34 -3 33 19 0 14 -2 13 -9 -3 -6 -13 -9 -15 -9 -5
-1 30 14 41 29 20 13 -18 15 -19 34 -2 12 10 16 11 11 3 -6 -10 -4 -12 4 -7 7
5 10 13 8 20 -3 6 6 12 21 13 14 0 29 8 34 17 5 9 16 16 23 16 8 0 15 8 15 17
0 9 3 13 7 10 3 -4 12 2 20 13 16 23 33 26 33 6 0 -8 7 -16 15 -20 17 -6 21 9
5 19 -5 3 -10 14 -10 23 0 14 2 13 14 -3 7 -10 20 -16 28 -13z m-415 -35 c23
-25 42 -97 25 -97 -6 0 -8 10 -4 22 4 18 2 20 -16 16 -12 -4 -20 -3 -18 0 2 4
-2 13 -10 20 -12 11 -14 9 -14 -13 0 -14 -4 -25 -10 -25 -5 0 -10 4 -10 9 0 5
-10 11 -22 14 -22 6 -22 6 -2 29 10 12 24 28 29 35 15 18 27 16 52 -10z m-291
-24 c-7 -7 -26 7 -26 19 0 6 6 6 15 -2 9 -7 13 -15 11 -17z m116 -11 c-4 -10
-7 -12 -10 -4 -2 7 -8 12 -13 12 -4 0 -6 -7 -2 -16 4 -11 2 -15 -6 -13 -7 3
-12 8 -12 12 1 4 1 13 1 21 0 9 8 12 24 9 18 -4 23 -10 18 -21z m305 -4 c-3
-8 -6 -5 -6 6 -1 11 2 17 5 13 3 -3 4 -12 1 -19z m-372 2 c3 -5 1 -10 -4 -10
-6 0 -11 5 -11 10 0 6 2 10 4 10 3 0 8 -4 11 -10z m135 -16 c0 -12 -4 -12 -19
-2 -11 7 -18 15 -15 20 7 11 34 -3 34 -18z m95 -33 c3 -5 2 -12 -3 -15 -5 -3
-9 1 -9 9 0 17 3 19 12 6z m90 -51 c3 -25 2 -30 -9 -21 -7 6 -15 8 -18 5 -10
-10 -3 31 7 42 13 15 15 12 20 -26z m-72 9 c-8 -8 -13 -7 -18 2 -5 8 -4 10 3
5 7 -4 12 -2 12 5 0 7 3 9 7 6 4 -4 2 -12 -4 -18z m696 7 c9 -10 8 -15 -2 -19
-8 -3 -13 3 -13 14 0 23 0 23 15 5z m71 -30 c0 -22 -19 -59 -21 -41 -6 60 -4
83 8 73 7 -6 13 -20 13 -32z m-745 -6 c3 -6 -1 -7 -9 -4 -18 7 -21 14 -7 14 6
0 13 -4 16 -10z m719 -65 c3 -8 1 -15 -4 -15 -6 0 -10 7 -10 15 0 8 2 15 4 15
2 0 6 -7 10 -15z m-944 -209 c0 -2 -8 -10 -17 -17 -16 -13 -17 -12 -4 4 13 16
21 21 21 13z m-15 -64 c-13 -13 -16 -13 -9 -2 5 8 9 18 10 23 4 19 6 21 11 9
3 -8 -3 -21 -12 -30z m-27 -46 c-7 -8 -15 -12 -17 -11 -5 6 10 25 20 25 5 0 4
-6 -3 -14z m72 -1 c-6 -7 -7 -15 -3 -17 4 -3 3 -4 -3 -2 -6 1 -17 -2 -25 -7
-11 -7 -11 -9 4 -9 9 0 17 -7 17 -15 0 -20 -15 -19 -35 2 -16 15 -15 17 7 29
12 7 17 13 11 14 -25 0 -13 18 12 18 19 0 23 -3 15 -13z m510 -5 c0 -5 -2 -10
-4 -10 -3 0 -8 5 -11 10 -3 6 -1 10 4 10 6 0 11 -4 11 -10z m-532 -86 c2 -15
1 -16 -6 -5 -6 7 -15 11 -21 7 -7 -5 -9 -1 -5 9 8 21 28 14 32 -11z m80 -29
c-3 -3 -9 2 -12 12 -6 14 -5 15 5 6 7 -7 10 -15 7 -18z m147 5 c3 -6 -1 -7 -9
-4 -10 4 -16 1 -16 -7 0 -7 -3 -10 -6 -6 -7 7 4 27 16 27 5 0 12 -4 15 -10z
m81 -6 c-4 -9 -2 -22 4 -29 8 -10 8 -15 -1 -21 -7 -4 -9 -3 -5 4 3 6 -3 13
-14 17 -16 5 -18 9 -7 26 14 23 32 25 23 3z m84 -8 c0 -3 -4 -8 -10 -11 -5 -3
-10 -1 -10 4 0 6 5 11 10 11 6 0 10 -2 10 -4z m737 -225 c0 -11 -5 -18 -9 -15
-4 3 -5 11 -1 19 7 21 12 19 10 -4z m-1178 -295 c7 -8 8 -17 3 -20 -6 -3 -12
3 -15 14 -6 24 -4 25 12 6z m-79 -178 c0 -12 -6 -9 -26 13 -19 22 -19 22 4 8
12 -8 22 -17 22 -21z m36 2 c0 -11 -4 -20 -8 -20 -4 0 -8 9 -8 20 0 11 4 20 8
20 4 0 8 -9 8 -20z m-191 -50 c3 -6 -1 -7 -9 -4 -18 7 -21 14 -7 14 6 0 13 -4
16 -10z m75 0 c0 -5 -5 -10 -11 -10 -5 0 -7 5 -4 10 3 6 8 10 11 10 2 0 4 -4
4 -10z m-52 -64 c-10 -7 -15 -16 -11 -20 4 -3 -8 -1 -25 5 -34 12 -45 25 -12
14 11 -3 28 -2 37 4 25 15 31 13 11 -3z m72 -17 c0 -5 -4 -9 -10 -9 -5 0 -10
7 -10 16 0 8 5 12 10 9 6 -3 10 -10 10 -16z m-44 -8 c0 -11 -6 -17 -13 -14 -6
3 -9 11 -6 19 7 20 19 17 19 -5z m-902 -57 c-22 -29 -25 -37 -14 -44 8 -5 18
-6 22 -4 4 3 8 0 8 -6 0 -7 7 -5 16 4 8 9 20 16 27 16 6 0 2 -7 -9 -16 -10 -8
-13 -13 -6 -9 6 3 12 2 12 -4 0 -6 8 -8 18 -4 14 5 13 3 -3 -10 -15 -13 -16
-16 -5 -17 10 0 11 -3 4 -8 -10 -6 -25 -49 -28 -77 -1 -5 4 -21 11 -34 10 -21
9 -27 -10 -44 l-22 -20 23 6 c15 3 22 1 22 -9 0 -8 -5 -14 -11 -14 -8 0 -8 -5
1 -15 10 -12 9 -15 -6 -16 -17 -1 -17 -2 -1 -6 9 -2 17 -8 17 -13 0 -5 -8 -14
-17 -19 -17 -10 -17 -12 -1 -24 10 -8 15 -17 11 -20 -3 -4 1 -7 10 -7 11 0 14
-5 11 -15 -5 -11 -10 -13 -19 -5 -9 8 -14 5 -18 -11 -4 -15 -2 -19 8 -15 9 3
12 0 8 -10 -3 -7 -11 -14 -19 -14 -8 0 -14 -4 -14 -10 0 -5 -5 -10 -11 -10 -6
0 -9 7 -6 15 4 8 2 17 -4 20 -5 4 -7 11 -3 16 3 5 10 6 16 3 7 -5 8 -2 3 6 -5
8 -1 18 10 26 10 8 15 17 12 21 -4 4 -22 -9 -41 -29 -24 -26 -32 -43 -31 -66
1 -17 -1 -31 -4 -30 -20 2 -22 -5 -5 -24 19 -21 19 -21 -3 -16 -12 3 -24 1
-26 -5 -5 -16 -27 2 -27 23 0 10 -7 21 -16 24 -10 4 -13 2 -8 -6 4 -6 -5 -3
-19 8 -28 20 -34 34 -16 34 5 0 7 5 4 10 -4 6 -10 8 -14 5 -5 -2 -6 7 -3 20 2
15 0 25 -7 25 -7 0 -9 -4 -6 -10 3 -5 1 -10 -4 -10 -14 0 -14 27 -1 35 8 5 8
11 0 20 -6 7 -9 18 -8 23 2 6 -6 17 -17 26 -20 15 -20 15 2 10 35 -9 65 -44
59 -68 -5 -20 -4 -20 13 3 16 20 19 21 24 7 4 -10 12 -14 17 -11 6 4 10 3 9
-2 -3 -19 2 -33 12 -33 6 0 8 9 4 21 -4 13 -1 27 9 38 9 9 18 33 21 52 4 29 3
30 -4 9 -5 -14 -9 -21 -10 -17 -1 12 -31 -20 -31 -33 0 -21 -23 -4 -25 18 -1
11 1 21 4 20 19 -2 22 4 10 19 -12 15 -12 16 1 8 11 -6 12 -5 4 4 -14 15 -44
3 -37 -15 4 -10 0 -12 -11 -8 -12 5 -14 10 -6 19 5 6 7 14 4 17 -3 3 3 5 13 5
15 -2 17 4 15 34 -2 27 1 38 13 43 12 4 14 10 8 19 -18 22 -23 46 -9 41 7 -3
13 2 13 11 0 9 -6 14 -14 11 -7 -3 -13 -1 -13 4 0 6 7 10 15 10 8 0 15 5 15
10 0 6 -5 10 -10 10 -19 0 11 36 41 49 20 9 28 19 26 34 -1 16 3 21 15 19 9
-1 19 2 23 8 3 5 8 10 11 10 3 0 -7 -16 -22 -36z m91 7 c-3 -6 -11 -11 -16
-11 -5 0 -4 6 3 14 14 16 24 13 13 -3z m-139 -2 c3 -6 1 -16 -6 -22 -10 -9
-11 -9 -5 2 4 8 2 17 -6 22 -9 6 -10 9 -2 9 6 0 15 -5 19 -11z m916 -7 c3 8 7
8 11 1 3 -5 -4 -15 -16 -20 -19 -9 -23 -8 -24 9 -2 15 1 17 12 8 10 -8 14 -8
17 2z m-2 -52 c0 -5 -7 -7 -15 -4 -8 4 -15 8 -15 10 0 2 7 4 15 4 8 0 15 -4
15 -10z m-35 -9 c3 -5 2 -12 -3 -15 -5 -3 -9 1 -9 9 0 17 3 19 12 6z m-650
-40 c3 -5 2 -12 -3 -15 -5 -3 -9 1 -9 9 0 17 3 19 12 6z m-493 -46 c-2 -11 1
-14 9 -9 8 4 10 3 5 -5 -4 -6 -12 -8 -18 -5 -6 4 -14 1 -18 -6 -5 -9 -9 -9
-14 -1 -4 6 -2 11 4 11 6 0 8 5 5 10 -4 6 -3 10 2 9 20 -4 27 2 13 12 -13 9
-13 10 0 6 8 -2 14 -12 12 -22z m-482 -10 c-14 -8 -32 -14 -40 -14 -8 0 -1 6
15 14 40 18 57 18 25 0z m1639 -32 c3 -2 -7 -2 -21 -1 -17 1 -24 7 -21 15 4
11 9 11 22 1 9 -7 18 -14 20 -15z m-1429 -13 c-6 -11 -12 -20 -14 -20 -2 0 -2
9 1 20 3 11 9 20 15 20 5 0 4 -9 -2 -20z m425 -11 c-4 -5 -12 -9 -18 -8 -9 0
-8 2 1 6 6 2 9 10 6 15 -4 7 -2 8 5 4 6 -4 9 -12 6 -17z m295 -3 c0 -2 -9 -6
-20 -9 -11 -3 -18 -1 -14 4 5 9 34 13 34 5z m765 -16 c3 -5 1 -10 -5 -10 -6 0
-9 -4 -5 -9 3 -5 1 -12 -4 -15 -13 -8 -24 11 -17 29 6 17 22 20 31 5z m-1051
-16 c5 -14 4 -15 -9 -4 -17 14 -19 20 -6 20 5 0 12 -7 15 -16z m36 -14 c0 -5
-2 -10 -4 -10 -3 0 -8 5 -11 10 -3 6 -1 10 4 10 6 0 11 -4 11 -10z m974 -13
c15 -14 15 -17 2 -17 -13 0 -46 25 -46 35 0 9 29 -3 44 -18z m-679 -7 c-3 -6
1 -13 10 -16 13 -5 13 -9 3 -22 -11 -13 -10 -15 4 -10 9 4 19 1 21 -7 4 -8 -1
-12 -11 -10 -9 2 -22 4 -27 4 -6 1 -10 16 -9 34 2 37 2 37 10 37 3 0 2 -5 -1
-10z m-11 -72 c8 -6 8 -8 0 -8 -18 0 -37 28 -28 42 6 10 10 8 12 -7 3 -11 9
-23 16 -27z m-482 10 c-4 -16 -2 -19 8 -13 9 5 11 4 6 -4 -4 -6 -12 -9 -17 -6
-12 8 -12 45 0 45 5 0 7 -10 3 -22z m65 -48 c3 -8 6 -24 7 -36 1 -11 7 -28 15
-38 12 -14 12 -16 -4 -10 -14 6 -16 4 -10 -7 5 -8 4 -11 0 -6 -5 4 -11 15 -13
25 -5 26 -11 130 -6 107 3 -11 8 -27 11 -35z m498 10 c3 -18 2 -20 -10 -10 -8
6 -11 18 -8 26 7 18 12 13 18 -16z m60 21 c-3 -5 -1 -12 5 -16 5 -3 10 -12 10
-18 0 -7 -7 -3 -15 7 -13 17 -12 36 1 36 3 0 3 -4 -1 -9z m-1625 -5 c0 -3 -4
-8 -10 -11 -5 -3 -10 -1 -10 4 0 6 5 11 10 11 6 0 10 -2 10 -4z m2181 -11 c0
-5 -5 -11 -12 -14 -7 -2 -9 1 -4 10 7 12 5 12 -6 1 -12 -11 -12 -14 1 -22 13
-8 12 -10 -2 -10 -19 0 -22 8 -12 35 7 17 35 17 35 0z m261 -10 c0 -5 -5 -11
-10 -13 -5 -1 -9 4 -9 13 0 9 4 14 9 13 5 -2 10 -8 10 -13z m-668 -31 c4 -12
2 -15 -9 -10 -22 8 -59 -68 -51 -105 3 -16 2 -29 -3 -29 -11 0 -21 26 -17 43
3 6 7 25 11 40 3 16 18 40 32 53 31 29 29 28 37 8z m550 -29 c-4 -8 -8 -15
-10 -15 -2 0 -4 7 -4 15 0 8 4 15 10 15 5 0 7 -7 4 -15z m-725 -29 c7 -8 8
-17 3 -20 -6 -3 -12 3 -15 14 -6 24 -4 25 12 6z m-139 -7 c0 -5 -4 -8 -9 -5
-5 4 -12 0 -14 -6 -3 -8 -6 -6 -6 5 -1 9 6 17 14 17 8 0 15 -5 15 -11z m-50
-29 c0 -5 -5 -10 -11 -10 -5 0 -7 5 -4 10 3 6 8 10 11 10 2 0 4 -4 4 -10z
m130 -16 c0 -8 5 -14 10 -14 16 0 -6 -37 -29 -49 -13 -7 -24 -6 -37 4 -18 13
-18 14 8 24 14 5 29 15 33 21 6 9 2 9 -13 1 -31 -16 -33 -14 -9 13 22 25 37
25 37 0z m-224 -4 c0 -12 -4 -16 -9 -11 -5 5 -6 14 -3 20 10 15 12 14 12 -9z
m134 -10 c-20 -13 -53 -13 -45 0 4 6 10 8 14 6 4 -3 13 -1 21 4 8 5 17 7 19 4
3 -3 -1 -9 -9 -14z m-105 -59 c1 -17 -3 -29 -9 -28 -13 2 -26 18 -26 32 0 6 4
4 9 -4 7 -11 10 -11 17 0 4 7 3 14 -4 17 -7 2 -9 8 -6 14 9 14 17 2 19 -31z
m88 19 c14 -11 30 -20 36 -20 6 0 11 -4 11 -10 0 -15 -8 -12 -40 10 -15 11
-38 24 -51 29 -23 9 -23 10 -3 10 12 1 33 -8 47 -19z m-163 0 c0 -5 -5 -10
-11 -10 -5 0 -7 5 -4 10 3 6 8 10 11 10 2 0 4 -4 4 -10z m121 -21 c11 -6 18
-16 15 -24 -7 -19 5 -27 21 -13 11 8 12 7 8 -5 -4 -8 -1 -18 4 -22 6 -3 9 -11
5 -16 -3 -6 -12 -2 -19 8 -7 10 -17 15 -21 11 -4 -4 -1 -16 7 -25 13 -16 12
-17 -4 -4 -10 8 -15 21 -12 31 3 9 -4 27 -15 40 -29 33 -25 39 11 19z m-91 -9
c0 -5 -4 -10 -10 -10 -5 0 -10 5 -10 10 0 6 5 10 10 10 6 0 10 -4 10 -10z
m301 -40 c12 -7 40 -17 62 -24 22 -6 43 -18 45 -26 5 -13 3 -13 -11 -1 -14 11
-18 11 -23 -3 -5 -13 -9 -13 -26 7 l-19 22 11 -22 c9 -19 8 -22 -5 -17 -8 4
-15 11 -15 16 0 11 -29 37 -42 38 -4 0 -6 -9 -5 -19 1 -12 6 -17 16 -13 10 4
13 1 8 -12 -5 -12 1 -20 17 -28 15 -6 22 -16 19 -24 -4 -11 -11 -8 -29 11 -13
14 -28 25 -34 25 -5 0 -10 8 -10 18 0 13 -2 14 -9 4 -4 -8 -18 -12 -29 -10
-27 4 -14 28 16 31 12 1 22 5 22 9 0 4 0 11 0 16 0 4 -6 7 -13 8 -22 1 -57 15
-57 24 0 9 76 -12 111 -30z m-617 -5 c-4 -8 -1 -15 6 -15 10 0 10 -3 0 -15
-10 -12 -10 -19 -2 -27 16 -16 15 -29 -1 -22 -15 5 -17 94 -2 94 2 0 2 -7 -1
-15z m355 -19 c-3 -3 -11 5 -18 17 -13 21 -12 21 5 5 10 -10 16 -20 13 -22z
m146 24 c3 -5 1 -10 -4 -10 -6 0 -11 5 -11 10 0 6 2 10 4 10 3 0 8 -4 11 -10z
m3 -55 c-3 -3 -9 2 -12 12 -6 14 -5 15 5 6 7 -7 10 -15 7 -18z m95 -60 c4 -8
1 -17 -5 -21 -7 -5 -8 -2 -3 6 5 9 2 10 -14 5 -16 -5 -20 -3 -15 9 8 20 30 21
37 1z m-1856 -77 c-3 -8 -6 -5 -6 6 -1 11 2 17 5 13 3 -3 4 -12 1 -19z m1407
-10 c3 -13 1 -27 -4 -32 -7 -7 -10 -1 -10 15 0 19 -2 21 -10 9 -11 -17 -13
-10 -4 14 9 23 21 20 28 -6z m-1476 -223 c-3 -3 -9 2 -12 12 -6 14 -5 15 5 6
7 -7 10 -15 7 -18z m10 -70 c-6 -14 -13 -23 -16 -21 -7 7 9 46 18 46 5 0 4
-11 -2 -25z m4482 -553 c0 -7 -4 -10 -10 -7 -5 3 -10 16 -10 28 0 18 2 19 10
7 5 -8 10 -21 10 -28z m-29 -59 c12 -16 12 -17 -2 -6 -9 7 -20 9 -24 5 -5 -4
-5 -1 -1 6 9 16 11 15 27 -5z m-5901 -13 c0 -5 -2 -10 -4 -10 -3 0 -8 5 -11
10 -3 6 -1 10 4 10 6 0 11 -4 11 -10z m5820 -33 c0 -4 -4 -5 -10 -2 -5 3 -10
2 -10 -3 0 -5 -7 -9 -15 -9 -11 0 -12 4 -5 11 5 5 10 19 10 31 1 20 1 20 15 1
8 -11 15 -24 15 -29z m20 -29 c0 -4 -4 -8 -9 -8 -6 0 -12 4 -15 8 -3 5 1 9 9
9 8 0 15 -4 15 -9z m-6 -37 c-2 -3 -12 3 -22 13 -16 17 -16 18 5 5 12 -7 20
-15 17 -18z m23 7 c-3 -8 -6 -5 -6 6 -1 11 2 17 5 13 3 -3 4 -12 1 -19z
m-5727 -53 c0 -5 -5 -3 -10 5 -5 8 -10 20 -10 25 0 6 5 3 10 -5 5 -8 10 -19
10 -25z m38 -136 c-3 -8 -7 -3 -11 10 -4 17 -3 21 5 13 5 -5 8 -16 6 -23z
m1272 17 c0 -3 -4 -8 -10 -11 -5 -3 -10 -1 -10 4 0 6 5 11 10 11 6 0 10 -2 10
-4z m4401 -119 c-10 -9 -11 -8 -5 6 3 10 9 15 12 12 3 -3 0 -11 -7 -18z
m-4411 -41 c0 -2 -7 -6 -15 -10 -8 -3 -15 -1 -15 4 0 6 7 10 15 10 8 0 15 -2
15 -4z m-38 -50 c6 4 9 1 7 -5 -8 -22 -24 -16 -26 9 -1 15 0 18 3 7 3 -9 10
-14 16 -11z m-1489 -16 c3 -11 1 -18 -4 -14 -5 3 -9 12 -9 20 0 20 7 17 13 -6z
m5829 -57 c-3 -16 -7 -22 -10 -15 -4 13 4 42 11 42 2 0 2 -12 -1 -27z m38 17
c0 -5 -4 -10 -10 -10 -5 0 -10 5 -10 10 0 6 5 10 10 10 6 0 10 -4 10 -10z m0
-29 c0 -5 -7 -11 -15 -15 -9 -3 -15 0 -15 9 0 8 7 15 15 15 8 0 15 -4 15 -9z
m-3 -53 c-3 -7 -5 -2 -5 12 0 14 2 19 5 13 2 -7 2 -19 0 -25z m-4397 7 c0 -8
-4 -15 -10 -15 -5 0 -10 7 -10 15 0 8 5 15 10 15 6 0 10 -7 10 -15z m4377 -16
c-3 -10 2 -26 10 -36 13 -17 14 -17 8 5 -4 13 -2 22 5 22 6 0 10 -10 8 -22 -2
-17 -9 -23 -28 -22 -14 1 -28 -3 -32 -10 -6 -8 -8 -7 -8 2 0 7 6 15 13 18 8 3
13 19 12 39 0 18 3 31 8 28 5 -3 7 -14 4 -24z m-4363 -25 c5 -14 4 -15 -9 -4
-12 10 -15 10 -15 0 0 -8 -3 -11 -6 -7 -7 7 4 27 16 27 4 0 11 -7 14 -16z
m4386 -55 c0 -6 -4 -8 -9 -5 -5 4 -11 1 -13 -6 -3 -8 -6 -7 -10 3 -4 10 1 15
13 16 10 1 19 -3 19 -8z m-43 -51 c-3 -8 -6 -5 -6 6 -1 11 2 17 5 13 3 -3 4
-12 1 -19z m-17 -18 c0 -5 -5 -10 -11 -10 -5 0 -7 5 -4 10 3 6 8 10 11 10 2 0
4 -4 4 -10z m24 -18 c3 -5 -1 -9 -9 -9 -8 0 -12 4 -9 9 3 4 7 8 9 8 2 0 6 -4
9 -8z m-44 -67 c0 -29 -12 -32 -31 -7 -13 16 -13 16 5 2 18 -14 18 -13 12 8
-5 13 -3 22 3 22 6 0 11 -11 11 -25z m100 -21 c0 -2 -8 0 -19 5 -10 6 -22 7
-26 3 -5 -4 -5 -1 -1 6 5 9 12 9 27 2 10 -6 19 -13 19 -16z m-112 -34 c-7 -11
-16 -20 -21 -20 -4 0 -3 9 3 20 6 11 15 20 20 20 6 0 5 -9 -2 -20z m70 -11
c-3 -8 -7 -3 -11 10 -4 17 -3 21 5 13 5 -5 8 -16 6 -23z m-1 -27 c14 -14 17
-7 14 28 -2 12 0 13 7 1 5 -7 7 -22 5 -32 -3 -10 0 -19 6 -19 6 0 11 -4 11 -9
0 -5 -6 -9 -12 -8 -7 0 -22 -1 -33 -2 -17 -2 -15 -4 9 -14 l29 -13 -26 -11
c-19 -9 -28 -9 -33 -1 -4 6 -3 8 4 4 6 -3 13 -2 16 3 3 5 -1 12 -10 15 -11 4
-14 15 -10 36 2 16 1 32 -4 35 -10 6 -16 -13 -16 -52 1 -17 -2 -29 -6 -27 -4
2 -9 0 -12 -5 -4 -5 -2 -12 4 -16 6 -3 9 -27 8 -51 -1 -35 -7 -49 -24 -60 -15
-10 -21 -22 -18 -37 4 -21 4 -21 -4 -2 -12 26 -10 39 7 42 26 3 33 20 7 18
-19 -2 -23 1 -18 13 4 10 7 12 10 4 2 -7 8 -9 13 -6 6 3 5 11 -2 20 -10 12 -9
13 5 8 12 -5 16 0 16 22 0 27 -1 27 -15 8 -8 -10 -15 -14 -15 -7 0 6 4 14 9
17 4 3 6 17 3 31 -2 14 0 25 7 25 5 0 8 6 5 14 -3 8 -13 12 -22 9 -14 -4 -15
-3 -2 5 8 6 17 9 21 6 4 -2 15 8 25 23 13 20 19 24 22 13 3 -8 11 -21 19 -28z
m-297 -106 c0 -3 -4 -8 -10 -11 -5 -3 -10 -1 -10 4 0 6 5 11 10 11 6 0 10 -2
10 -4z m251 -99 c-6 -8 -7 -18 -3 -22 4 -5 1 -5 -6 -1 -10 6 -10 11 -1 22 6 8
14 14 16 14 3 0 0 -6 -6 -13z m-4374 -109 c-3 -7 -5 -2 -5 12 0 14 2 19 5 13
2 -7 2 -19 0 -25z m-397 -18 c8 -5 11 -10 5 -10 -5 0 -17 5 -25 10 -8 5 -10
10 -5 10 6 0 17 -5 25 -10z m85 -100 c3 -6 -1 -7 -9 -4 -18 7 -21 14 -7 14 6
0 13 -4 16 -10z m321 -76 c-1 -8 -6 -17 -12 -21 -5 -4 -6 -4 -2 1 4 5 3 14 -2
21 -7 8 -5 12 4 12 8 0 13 -6 12 -13z m-233 -21 c-16 -6 -17 -40 -1 -45 9 -3
9 -6 0 -11 -7 -5 -17 4 -26 22 -16 31 -11 39 24 39 10 0 11 -1 3 -5z m207 -7
c0 -2 -7 -7 -16 -10 -8 -3 -12 -2 -9 4 6 10 25 14 25 6z m25 -16 c3 -5 1 -10
-4 -10 -6 0 -11 5 -11 10 0 6 2 10 4 10 3 0 8 -4 11 -10z m3 -36 c6 3 13 2 16
-2 3 -5 -4 -9 -16 -8 -12 0 -23 8 -25 16 -4 12 -3 13 5 1 5 -7 14 -11 20 -7z
m-233 -23 c-3 -5 5 -17 17 -25 12 -9 16 -16 9 -16 -10 0 -11 -3 -2 -14 16 -19
25 -70 11 -61 -5 3 -10 14 -10 23 0 9 -7 26 -15 36 -8 10 -12 22 -10 27 3 4 1
10 -5 14 -13 8 -13 25 1 25 5 0 8 -4 4 -9z m209 -6 c3 -8 1 -15 -4 -15 -6 0
-10 7 -10 15 0 8 2 15 4 15 2 0 6 -7 10 -15z m30 -11 c3 -8 2 -12 -4 -9 -6 3
-10 10 -10 16 0 14 7 11 14 -7z m-9 -25 c11 -16 1 -19 -13 -3 -7 8 -8 14 -3
14 5 0 13 -5 16 -11z m-170 -19 c3 -5 1 -10 -4 -10 -6 0 -11 5 -11 10 0 6 2
10 4 10 3 0 8 -4 11 -10z m155 0 c0 -5 -2 -10 -4 -10 -3 0 -8 5 -11 10 -3 6
-1 10 4 10 6 0 11 -4 11 -10z m20 -45 c-7 -9 -15 -13 -19 -10 -3 3 1 10 9 15
21 14 24 12 10 -5z m-176 -57 c9 -17 16 -37 16 -44 0 -7 6 -15 13 -17 7 -3 5
-6 -5 -6 -11 -1 -18 6 -18 18 0 11 -4 22 -9 25 -8 5 -22 56 -15 56 1 0 10 -14
18 -32z m150 -14 c3 -8 2 -12 -4 -9 -6 3 -10 10 -10 16 0 14 7 11 14 -7z m29
-61 c-3 -7 -6 -13 -8 -13 -2 0 -5 6 -8 13 -3 8 1 14 8 14 7 0 11 -6 8 -14z
m-101 -15 c-7 -7 -12 -8 -12 -2 0 6 3 14 7 17 3 4 9 5 12 2 2 -3 -1 -11 -7
-17z m48 -212 c0 -3 -4 -8 -10 -11 -5 -3 -10 -1 -10 4 0 6 5 11 10 11 6 0 10
-2 10 -4z m34 -192 c3 -8 2 -12 -4 -9 -6 3 -10 10 -10 16 0 14 7 11 14 -7z"/>
<path d="M5630 9379 c0 -5 5 -7 10 -4 6 3 10 8 10 11 0 2 -4 4 -10 4 -5 0 -10
-5 -10 -11z"/>
<path d="M5370 9356 c0 -2 7 -7 16 -10 8 -3 12 -2 9 4 -6 10 -25 14 -25 6z"/>
<path d="M5820 9349 c0 -5 5 -7 10 -4 6 3 10 8 10 11 0 2 -4 4 -10 4 -5 0 -10
-5 -10 -11z"/>
<path d="M5952 9274 c-7 -8 -8 -14 -3 -14 10 0 25 19 20 25 -2 1 -10 -3 -17
-11z"/>
<path d="M6068 9278 c5 -5 16 -8 23 -6 8 3 3 7 -10 11 -17 4 -21 3 -13 -5z"/>
<path d="M5230 9261 c0 -6 5 -13 10 -16 6 -3 10 1 10 9 0 9 -4 16 -10 16 -5 0
-10 -4 -10 -9z"/>
<path d="M5393 9255 c0 -8 4 -12 9 -9 5 3 6 10 3 15 -9 13 -12 11 -12 -6z"/>
<path d="M5266 9207 c3 -10 9 -15 12 -12 3 3 0 11 -7 18 -10 9 -11 8 -5 -6z"/>
<path d="M6133 9185 c0 -8 4 -12 9 -9 5 3 6 10 3 15 -9 13 -12 11 -12 -6z"/>
<path d="M5785 9170 c3 -5 8 -10 11 -10 2 0 4 5 4 10 0 6 -5 10 -11 10 -5 0
-7 -4 -4 -10z"/>
<path d="M5110 9122 c0 -14 39 -32 46 -21 3 6 3 13 0 16 -3 4 -6 0 -6 -8 -1
-10 -3 -9 -11 4 -10 17 -29 24 -29 9z"/>
<path d="M5175 9070 c-3 -5 -1 -10 4 -10 6 0 11 5 11 10 0 6 -2 10 -4 10 -3 0
-8 -4 -11 -10z"/>
<path d="M5110 9040 c0 -5 5 -10 11 -10 5 0 7 5 4 10 -3 6 -8 10 -11 10 -2 0
-4 -4 -4 -10z"/>
<path d="M6263 9007 c0 -8 6 -14 14 -14 9 0 10 4 2 14 -6 7 -12 13 -14 13 -1
0 -2 -6 -2 -13z"/>
<path d="M5157 8989 c7 -7 15 -10 18 -7 3 3 -2 9 -12 12 -14 6 -15 5 -6 -5z"/>
<path d="M5105 8940 c3 -4 -1 -11 -7 -13 -8 -3 -6 -6 5 -6 9 -1 17 3 17 9 0 5
8 7 18 3 9 -3 14 -3 11 1 -9 10 -50 16 -44 6z"/>
<path d="M5123 8878 c-3 -7 -1 -8 5 -4 7 4 12 1 12 -8 0 -9 8 -16 18 -15 12 0
13 2 3 6 -10 4 -10 7 -1 13 8 5 5 9 -9 13 -12 3 -24 0 -28 -5z"/>
<path d="M5286 8858 c3 -5 10 -6 15 -3 13 9 11 12 -6 12 -8 0 -12 -4 -9 -9z"/>
<path d="M5366 8858 c3 -5 10 -6 15 -3 13 9 11 12 -6 12 -8 0 -12 -4 -9 -9z"/>
<path d="M6285 8850 c12 -5 14 -9 6 -9 -8 -1 -12 -3 -9 -6 3 -3 13 -2 22 1 14
5 15 9 4 15 -7 5 -20 8 -28 8 -10 0 -8 -3 5 -9z"/>
<path d="M5110 8800 c0 -5 5 -10 10 -10 6 0 10 5 10 10 0 6 -4 10 -10 10 -5 0
-10 -4 -10 -10z"/>
<path d="M5196 8798 c3 -4 11 -5 19 -1 21 7 19 12 -4 10 -11 0 -18 -5 -15 -9z"/>
<path d="M5240 8806 c0 -2 7 -7 16 -10 8 -3 12 -2 9 4 -6 10 -25 14 -25 6z"/>
<path d="M5141 8793 c0 -5 4 -17 9 -28 8 -17 8 -16 7 8 -1 15 -5 27 -9 27 -4
0 -8 -3 -7 -7z"/>
<path d="M5225 8780 c-3 -6 1 -7 9 -4 18 7 21 14 7 14 -6 0 -13 -4 -16 -10z"/>
<path d="M5245 8760 c3 -6 1 -10 -6 -10 -7 0 -10 -3 -6 -6 3 -3 13 -2 22 4 16
8 16 9 1 15 -10 4 -15 3 -11 -3z"/>
<path d="M5177 8733 c-4 -6 0 -13 8 -17 8 -3 17 0 21 6 4 6 3 8 -4 4 -5 -3
-12 -1 -14 6 -3 8 -6 9 -11 1z"/>
<path d="M5030 8695 c-7 -9 -8 -15 -2 -15 6 0 12 -8 14 -17 3 -15 5 -15 10 3
8 31 -5 49 -22 29z"/>
<path d="M5065 8700 c3 -5 8 -10 11 -10 2 0 4 5 4 10 0 6 -5 10 -11 10 -5 0
-7 -4 -4 -10z"/>
<path d="M5286 8693 c-6 -14 -5 -15 5 -6 7 7 10 15 7 18 -3 3 -9 -2 -12 -12z"/>
<path d="M5081 8681 c-10 -7 -7 -9 12 -8 14 1 23 5 20 10 -6 9 -15 9 -32 -2z"/>
<path d="M5210 8680 c-9 -6 -10 -10 -3 -10 6 0 15 5 18 10 8 12 4 12 -15 0z"/>
<path d="M6390 8649 c0 -5 5 -7 10 -4 6 3 10 8 10 11 0 2 -4 4 -10 4 -5 0 -10
-5 -10 -11z"/>
<path d="M5082 8643 c-6 -2 -9 -9 -6 -15 4 -6 9 -5 14 3 7 10 11 10 24 0 9 -8
16 -9 16 -3 0 8 -26 25 -33 21 -1 0 -8 -3 -15 -6z"/>
<path d="M5010 8636 c0 -2 11 -6 25 -8 13 -3 22 -1 19 3 -5 9 -44 13 -44 5z"/>
<path d="M5016 8583 c-6 -14 -5 -15 5 -6 7 7 10 15 7 18 -3 3 -9 -2 -12 -12z"/>
<path d="M4967 8441 c-3 -14 -1 -18 9 -14 16 6 18 19 5 27 -5 3 -11 -3 -14
-13z"/>
<path d="M6251 8444 c0 -11 3 -14 6 -6 3 7 2 16 -1 19 -3 4 -6 -2 -5 -13z"/>
<path d="M5056 8375 c4 -8 11 -15 16 -15 6 0 5 6 -2 15 -7 8 -14 15 -16 15 -2
0 -1 -7 2 -15z"/>
<path d="M5995 8200 c-3 -5 1 -10 9 -10 9 0 16 5 16 10 0 6 -4 10 -9 10 -6 0
-13 -4 -16 -10z"/>
<path d="M6260 8193 c0 -4 5 -15 10 -23 8 -13 10 -13 10 2 0 9 -4 20 -10 23
-5 3 -10 3 -10 -2z"/>
<path d="M6470 8120 c0 -6 -4 -9 -9 -5 -5 3 -12 1 -15 -4 -10 -16 8 -20 27 -6
12 8 14 15 8 20 -6 3 -11 1 -11 -5z"/>
<path d="M6360 8076 c7 -7 13 -7 20 0 6 6 3 10 -10 10 -13 0 -16 -4 -10 -10z"/>
<path d="M5313 7820 c-1 -11 2 -20 7 -20 4 0 7 7 6 15 -3 23 -12 26 -13 5z"/>
<path d="M6105 7810 c-3 -6 1 -7 9 -4 18 7 21 14 7 14 -6 0 -13 -4 -16 -10z"/>
<path d="M5746 7747 c3 -10 9 -15 12 -12 3 3 0 11 -7 18 -10 9 -11 8 -5 -6z"/>
<path d="M5275 7710 c-3 -6 1 -7 9 -4 18 7 21 14 7 14 -6 0 -13 -4 -16 -10z"/>
<path d="M5603 7425 c0 -8 4 -15 9 -15 4 0 8 7 8 15 0 8 -4 15 -8 15 -5 0 -9
-7 -9 -15z"/>
<path d="M5644 7388 c9 -16 14 -28 11 -28 -3 0 3 -10 15 -22 11 -12 23 -18 27
-15 3 4 1 7 -5 7 -7 0 -12 6 -12 14 0 8 -12 28 -26 43 l-26 28 16 -27z"/>
<path d="M5680 7300 c0 -5 5 -10 10 -10 6 0 10 5 10 10 0 6 -4 10 -10 10 -5 0
-10 -4 -10 -10z"/>
<path d="M5694 7249 c-3 -6 -2 -15 3 -20 5 -5 9 -1 9 11 0 23 -2 24 -12 9z"/>
<path d="M6536 7163 c-6 -14 -5 -15 5 -6 7 7 10 15 7 18 -3 3 -9 -2 -12 -12z"/>
<path d="M5565 7000 c3 -5 8 -10 11 -10 2 0 4 5 4 10 0 6 -5 10 -11 10 -5 0
-7 -4 -4 -10z"/>
<path d="M5610 6992 c0 -7 7 -20 15 -28 19 -20 20 -4 0 22 -9 12 -14 14 -15 6z"/>
<path d="M5760 6915 c7 -9 15 -13 17 -11 7 7 -7 26 -19 26 -6 0 -6 -6 2 -15z"/>
<path d="M6350 6830 c0 -12 -4 -18 -10 -15 -16 10 -11 -11 5 -25 9 -7 14 -19
11 -27 -3 -8 -1 -11 4 -8 13 8 13 82 0 90 -5 3 -10 -3 -10 -15z"/>
<path d="M6265 6771 c-3 -5 -1 -12 3 -15 16 -10 2 -55 -15 -49 -12 5 -13 -1
-8 -33 12 -67 28 -120 32 -106 3 7 0 26 -5 42 -7 18 -7 32 -1 35 5 4 9 15 9
26 0 11 7 22 15 25 19 8 20 43 1 50 -8 3 -12 12 -9 20 6 15 -12 20 -22 5z"/>
<path d="M6106 6640 c7 -8 14 -24 17 -35 4 -19 5 -19 6 1 0 12 -7 28 -16 35
-16 12 -17 12 -7 -1z"/>
<path d="M6160 6611 c0 -5 5 -13 10 -16 6 -3 10 -2 10 4 0 5 -4 13 -10 16 -5
3 -10 2 -10 -4z"/>
<path d="M6300 6605 c0 -8 2 -15 4 -15 2 0 6 7 10 15 3 8 1 15 -4 15 -6 0 -10
-7 -10 -15z"/>
<path d="M6250 6492 c0 -18 4 -32 9 -32 16 0 19 26 5 45 -13 17 -14 17 -14
-13z"/>
<path d="M6220 6461 c0 -6 4 -13 10 -16 6 -3 7 1 4 9 -7 18 -14 21 -14 7z"/>
<path d="M6706 7958 c-18 -25 -21 -42 -6 -33 6 3 11 -2 11 -12 1 -10 3 -44 4
-76 2 -32 9 -64 15 -72 16 -19 13 -135 -3 -135 -5 0 -7 -11 -5 -25 4 -17 0
-29 -11 -35 -12 -7 -12 -9 -2 -10 9 0 10 -4 4 -12 -13 -18 -15 -66 -3 -73 11
-7 25 39 16 54 -4 5 -2 12 4 16 6 4 8 11 5 16 -4 5 -1 9 5 9 6 0 8 5 5 10 -3
6 -1 10 6 10 8 0 7 5 -2 17 -10 11 -10 14 -1 9 7 -4 12 -2 13 6 4 46 -3 268
-10 351 -2 15 -31 6 -45 -15z"/>
<path d="M4580 7390 c8 -5 20 -10 25 -10 6 0 3 5 -5 10 -8 5 -19 10 -25 10 -5
0 -3 -5 5 -10z"/>
<path d="M4660 7370 c0 -14 6 -20 23 -19 18 1 18 2 4 6 -11 3 -16 11 -13 19 3
8 1 14 -4 14 -6 0 -10 -9 -10 -20z"/>
<path d="M4515 7370 c3 -5 8 -10 11 -10 2 0 4 5 4 10 0 6 -5 10 -11 10 -5 0
-7 -4 -4 -10z"/>
<path d="M4490 7349 c0 -5 5 -7 10 -4 6 3 10 8 10 11 0 2 -4 4 -10 4 -5 0 -10
-5 -10 -11z"/>
<path d="M4465 7320 c-3 -5 -1 -10 4 -10 6 0 11 5 11 10 0 6 -2 10 -4 10 -3 0
-8 -4 -11 -10z"/>
<path d="M4437 7169 c7 -7 15 -10 18 -7 3 3 -2 9 -12 12 -14 6 -15 5 -6 -5z"/>
<path d="M5416 7085 c4 -8 7 -15 9 -15 2 0 5 7 9 15 3 9 0 15 -9 15 -9 0 -12
-6 -9 -15z"/>
<path d="M5880 6325 c0 -9 6 -12 15 -9 8 4 12 10 9 15 -8 14 -24 10 -24 -6z"/>
<path d="M5871 6283 c-5 -10 -12 -17 -15 -15 -15 6 -17 1 -6 -13 14 -17 45
-21 35 -5 -4 6 -12 7 -18 3 -13 -8 12 28 28 39 6 5 6 8 -2 8 -7 0 -16 -8 -22
-17z"/>
<path d="M5499 6178 c-6 -21 -5 -37 2 -32 5 3 7 9 4 14 -3 4 1 11 7 13 10 4
10 6 1 6 -7 1 -13 0 -14 -1z"/>
<path d="M5745 6148 c11 -6 23 -16 26 -21 4 -5 17 -6 29 -2 21 7 21 9 7 17
-10 5 -21 7 -26 3 -5 -3 -12 -1 -16 5 -3 5 -14 10 -23 10 -14 -1 -14 -2 3 -12z"/>
<path d="M5418 6123 c7 -3 16 -2 19 1 4 3 -2 6 -13 5 -11 0 -14 -3 -6 -6z"/>
<path d="M5337 6076 c-3 -8 -2 -18 4 -22 16 -9 22 2 11 21 -8 15 -10 16 -15 1z"/>
<path d="M5708 6009 c-10 -10 -17 -19 -15 -20 29 -9 37 -5 37 17 0 28 0 28
-22 3z"/>
<path d="M5370 6001 c0 -5 7 -11 15 -15 8 -3 15 -1 15 3 0 5 -7 11 -15 15 -8
3 -15 1 -15 -3z"/>
<path d="M5440 6002 c0 -6 9 -12 20 -15 11 -3 20 -3 20 -1 0 2 -9 8 -20 14
-11 6 -20 7 -20 2z"/>
<path d="M5487 5949 c7 -7 15 -10 18 -7 3 3 -2 9 -12 12 -14 6 -15 5 -6 -5z"/>
<path d="M5532 5940 c7 -11 18 -20 25 -20 9 0 7 6 -4 20 -10 11 -21 20 -25 20
-5 0 -3 -9 4 -20z"/>
<path d="M5450 6511 c0 -5 5 -13 10 -16 6 -3 10 -2 10 4 0 5 -4 13 -10 16 -5
3 -10 2 -10 -4z"/>
<path d="M4080 4735 c0 -5 5 -17 10 -25 5 -8 10 -10 10 -5 0 6 -5 17 -10 25
-5 8 -10 11 -10 5z"/>
<path d="M4016 4527 c3 -10 9 -15 12 -12 3 3 0 11 -7 18 -10 9 -11 8 -5 -6z"/>
<path d="M6778 2223 c7 -3 16 -2 19 1 4 3 -2 6 -13 5 -11 0 -14 -3 -6 -6z"/>
<path d="M10190 6989 c0 -5 5 -7 10 -4 6 3 10 8 10 11 0 2 -4 4 -10 4 -5 0
-10 -5 -10 -11z"/>
<path d="M6310 6008 c0 -6 3 -8 6 -5 4 4 19 -2 33 -12 41 -28 51 -33 51 -23 0
8 -71 52 -84 52 -3 0 -6 -5 -6 -12z"/>
<path d="M6380 5946 c0 -2 7 -9 15 -16 13 -11 14 -10 9 4 -5 14 -24 23 -24 12z"/>
<path d="M6512 5881 c2 -8 15 -21 29 -30 19 -11 21 -12 9 0 -8 8 -20 21 -28
29 -11 12 -13 12 -10 1z"/>
<path d="M5785 5650 c-3 -5 -1 -10 4 -10 6 0 11 5 11 10 0 6 -2 10 -4 10 -3 0
-8 -4 -11 -10z"/>
<path d="M5720 5620 c0 -5 5 -10 11 -10 5 0 7 5 4 10 -3 6 -8 10 -11 10 -2 0
-4 -4 -4 -10z"/>
<path d="M6920 5583 c0 -12 5 -25 10 -28 6 -3 10 -16 10 -28 0 -12 5 -29 11
-37 15 -22 0 59 -17 90 -13 24 -13 24 -14 3z"/>
<path d="M6335 5560 c-13 -14 -15 -24 -8 -31 7 -7 14 -4 24 7 9 12 10 15 2 10
-7 -4 -13 -3 -13 3 0 5 8 11 18 13 11 2 13 6 6 10 -6 4 -19 -1 -29 -12z"/>
<path d="M6305 5489 c-4 -6 -4 -13 -1 -16 3 -4 6 -1 6 6 0 7 5 9 12 5 7 -4 8
-3 4 4 -9 15 -13 15 -21 1z"/>
<path d="M6948 5445 c-3 -13 -1 -22 4 -19 5 3 6 -7 1 -23 -4 -15 -6 -37 -5
-48 1 -11 2 -38 3 -60 l1 -40 8 32 c11 47 12 171 1 177 -5 3 -11 -5 -13 -19z"/>
<path d="M6320 5450 c-8 -5 -12 -12 -9 -15 4 -3 12 1 19 10 14 17 11 19 -10 5z"/>
<path d="M7570 5445 c-1 -5 -2 -18 -1 -27 1 -10 -4 -18 -11 -18 -9 -1 -7 -5 5
-14 14 -11 16 -19 7 -40 -6 -18 -6 -26 1 -26 6 0 7 -4 4 -10 -3 -5 -3 -10 2
-10 4 0 9 -15 11 -33 5 -65 7 -72 22 -79 13 -6 13 -7 -1 -7 -18 -1 -18 -22 0
-66 10 -24 14 -27 22 -15 9 13 10 13 6 0 -2 -8 -10 -14 -16 -12 -8 1 -9 -7 -5
-25 4 -14 7 -40 8 -57 1 -18 6 -31 14 -30 6 1 21 2 32 3 11 0 19 4 19 9 -4 21
3 24 17 6 14 -18 15 -18 4 4 -6 12 -8 27 -5 32 3 5 0 12 -6 16 -8 5 -9 3 -4
-6 5 -8 4 -11 -2 -7 -6 4 -8 17 -6 30 4 19 -2 66 -20 152 -2 6 -6 16 -10 23
-5 6 -5 17 -2 23 9 13 -24 50 -39 43 -6 -3 -3 1 7 9 18 15 18 16 -2 36 -12 12
-21 34 -21 52 0 16 -4 28 -9 24 -5 -3 -12 3 -14 12 -3 10 -6 14 -7 8z m75
-175 c3 -5 1 -10 -4 -10 -6 0 -11 5 -11 10 0 6 2 10 4 10 3 0 8 -4 11 -10z"/>
<path d="M5390 5355 c-18 -10 -20 -14 -8 -15 9 0 18 -3 21 -7 2 -5 2 -3 1 4
-2 6 2 14 9 16 7 2 10 7 7 10 -3 3 -16 -1 -30 -8z"/>
<path d="M5260 5340 c0 -5 5 -10 10 -10 6 0 10 5 10 10 0 6 -4 10 -10 10 -5 0
-10 -4 -10 -10z"/>
<path d="M7522 5310 c0 -14 2 -19 5 -12 2 6 2 18 0 25 -3 6 -5 1 -5 -13z"/>
<path d="M9422 5230 c0 -14 2 -19 5 -12 2 6 2 18 0 25 -3 6 -5 1 -5 -13z"/>
<path d="M5207 5179 c7 -7 15 -10 18 -7 3 3 -2 9 -12 12 -14 6 -15 5 -6 -5z"/>
<path d="M7027 5179 c17 -17 5 -42 -12 -26 -7 7 -10 16 -7 21 3 5 0 6 -6 2 -8
-5 -7 -16 1 -39 7 -17 12 -50 11 -72 -4 -79 -4 -100 -1 -125 2 -14 -1 -33 -5
-42 -5 -10 -5 -18 -1 -18 4 0 8 -13 9 -30 1 -16 -3 -27 -7 -24 -5 3 -5 -6 0
-19 5 -13 5 -30 1 -37 -5 -9 -4 -20 3 -29 9 -12 9 -13 0 -7 -10 5 -11 1 -3
-18 6 -17 6 -26 0 -26 -15 0 -12 -76 4 -89 11 -10 16 -9 24 5 7 13 10 14 15 2
3 -8 -4 -20 -14 -26 -15 -10 -19 -9 -19 0 0 9 -3 9 -12 0 -8 -8 -14 -43 -14
-85 -1 -40 -3 -76 -4 -82 -1 -5 -2 -18 -1 -29 1 -15 4 -16 16 -6 21 17 19 5
-2 -16 -14 -14 -18 -36 -19 -98 0 -45 -3 -97 -7 -116 -4 -24 -4 -30 3 -20 8
12 10 11 10 -7 0 -13 -4 -23 -10 -23 -33 0 15 -69 49 -70 8 0 4 -8 -10 -19
-21 -17 -22 -22 -11 -41 7 -12 10 -25 6 -28 -4 -4 -9 -2 -11 5 -5 13 -33 6
-33 -8 0 -4 6 -6 14 -3 7 3 16 -2 20 -12 5 -13 9 -14 21 -4 9 8 15 8 15 2 0
-6 3 -18 7 -27 5 -15 3 -16 -15 -6 -19 10 -22 9 -22 -7 0 -10 -5 -23 -12 -30
-9 -9 -9 -12 0 -12 7 0 12 5 12 11 0 5 5 7 10 4 6 -3 10 -1 10 4 0 6 5 11 10
11 19 0 10 -28 -10 -33 -13 -3 -20 -13 -19 -29 1 -15 3 -17 6 -6 5 19 33 33
33 16 0 -6 2 -9 5 -6 3 3 8 36 11 74 2 38 9 101 14 139 5 39 12 111 16 160 3
50 7 104 8 120 2 17 -3 35 -11 40 -17 13 -26 55 -11 55 5 0 8 7 4 15 -3 8 -2
15 2 15 12 0 1 84 -12 92 -7 5 -7 8 3 8 10 0 11 3 2 14 -9 10 -8 15 3 19 9 4
12 15 8 33 -5 25 -6 26 -13 9 -6 -17 -8 -17 -8 -3 -1 10 -10 22 -22 28 -11 7
-18 14 -15 17 3 3 12 0 20 -6 18 -15 40 -5 29 12 -5 7 -9 26 -9 42 -3 51 -3
53 -21 50 -10 -1 -12 0 -5 2 6 3 12 9 12 14 0 6 5 7 11 4 6 -4 9 0 7 11 -2 11
-12 24 -22 30 -11 6 -21 21 -23 33 -3 20 -2 20 15 3 11 -9 17 -20 16 -23 -2
-3 3 -6 11 -6 9 0 11 5 7 11 -5 6 -7 29 -5 51 10 92 10 121 1 132 -5 7 -5 14
2 18 6 3 7 11 4 17 -4 6 -9 25 -11 42 -7 57 -9 64 -21 79 -7 7 -9 17 -5 20 3
4 -2 7 -12 7 -14 0 -16 -3 -8 -11z m53 -251 c0 -6 -3 -8 -7 -5 -3 4 -11 2 -18
-3 -8 -7 -12 -5 -12 5 0 8 4 12 9 9 4 -3 8 0 8 6 0 6 5 8 10 5 6 -3 10 -11 10
-17z m-33 -374 c-3 -3 -12 -4 -19 -1 -8 3 -5 6 6 6 11 1 17 -2 13 -5z m-6 -27
c-6 -8 -9 -16 -6 -19 3 -2 -2 -5 -10 -5 -13 0 -13 3 2 19 19 21 31 25 14 5z
m30 -24 c0 -5 2 -18 3 -30 1 -12 -1 -20 -5 -17 -4 2 -9 -2 -12 -8 -2 -7 -8 -9
-13 -5 -5 4 -2 12 5 16 8 5 11 17 6 30 -4 12 -2 21 4 21 6 0 11 -3 12 -7z
m-27 -24 c3 -3 -3 -10 -12 -16 -14 -8 -18 -7 -18 7 0 16 18 21 30 9z m-24 -69
c-8 -5 -17 -7 -19 -4 -3 3 1 9 9 14 8 5 17 7 19 4 3 -3 -1 -9 -9 -14z m50 16
c0 -2 -7 -7 -16 -10 -8 -3 -12 -2 -9 4 6 10 25 14 25 6z m-10 -36 c0 -4 -6
-12 -13 -18 -10 -8 -13 -6 -13 7 0 10 6 18 13 18 7 0 13 -4 13 -7z m3 -61 c-9
-9 -12 -7 -10 9 1 14 5 18 11 12 7 -7 6 -14 -1 -21z m-54 14 c-1 -5 -1 -15 0
-23 1 -13 3 -13 12 0 9 12 9 11 4 -5 -4 -11 -8 -34 -9 -52 -1 -18 -6 -36 -10
-40 -5 -4 -6 2 -3 14 3 13 1 39 -3 60 -8 34 -6 53 6 53 2 0 3 -3 3 -7z m84
-26 c-4 -7 -6 -21 -4 -32 2 -15 0 -17 -9 -9 -13 13 -3 67 11 58 5 -3 6 -11 2
-17z m-24 -77 c1 -13 0 -13 -9 0 -5 8 -9 24 -9 35 l0 20 9 -20 c5 -11 9 -27 9
-35z m11 -30 c0 -5 -5 -10 -11 -10 -5 0 -7 5 -4 10 3 6 8 10 11 10 2 0 4 -4 4
-10z m-70 -29 c-7 -14 -6 -21 3 -24 6 -2 9 -8 4 -13 -4 -4 -14 -1 -23 8 -14
14 -14 17 1 32 22 21 28 20 15 -3z m65 -72 c-10 -15 -25 -10 -19 6 4 8 10 12
15 9 5 -3 7 -10 4 -15z m-63 -17 c-7 -2 -9 -9 -6 -14 4 -7 2 -8 -4 -4 -6 4 -9
13 -6 21 4 8 11 12 17 8 8 -5 7 -8 -1 -11z m45 -74 c-3 -8 -6 -5 -6 6 -1 11 2
17 5 13 3 -3 4 -12 1 -19z m-21 -23 c-3 -8 -1 -15 4 -15 6 0 10 5 10 12 0 6 3
9 6 5 3 -3 -1 -16 -10 -29 -13 -18 -16 -19 -16 -5 0 9 -5 17 -11 17 -8 0 -8 5
1 15 7 8 15 15 17 15 3 0 3 -7 -1 -15z"/>
<path d="M9421 5074 c0 -11 3 -14 6 -6 3 7 2 16 -1 19 -3 4 -6 -2 -5 -13z"/>
<path d="M5347 5074 c-4 -4 -7 -11 -7 -15 0 -9 27 -5 37 6 4 4 3 5 -4 2 -6 -4
-13 -2 -15 4 -2 5 -7 7 -11 3z"/>
<path d="M5135 5040 c21 -24 26 -25 19 -6 -3 8 -13 17 -22 21 -13 5 -13 2 3
-15z"/>
<path d="M5090 5009 c0 -5 5 -7 10 -4 6 3 10 8 10 11 0 2 -4 4 -10 4 -5 0 -10
-5 -10 -11z"/>
<path d="M5133 5008 c4 -12 1 -18 -8 -18 -7 0 -17 -4 -20 -10 -4 -7 3 -7 20 0
34 13 35 13 35 -4 0 -8 4 -17 9 -20 18 -11 -1 33 -22 51 -19 17 -20 17 -14 1z"/>
<path d="M9422 5000 c0 -14 2 -19 5 -12 2 6 2 18 0 25 -3 6 -5 1 -5 -13z"/>
<path d="M5060 4962 c0 -4 5 -14 10 -22 8 -13 13 -13 31 -2 11 8 19 10 16 5
-3 -5 -1 -15 4 -23 9 -13 10 -13 6 0 -2 8 3 21 12 28 14 11 14 11 -3 5 -11 -3
-17 -2 -14 3 3 5 -9 10 -28 11 -19 1 -34 -1 -34 -5z"/>
<path d="M7664 4961 c19 -7 19 -8 0 -15 -11 -4 -20 -3 -22 3 -2 6 -8 11 -14
11 -7 0 -7 -5 1 -13 6 -8 9 -16 6 -19 -8 -8 50 -2 65 7 10 6 9 11 -5 22 -11 7
-26 13 -34 12 -12 0 -11 -2 3 -8z m26 -21 c-8 -5 -19 -10 -25 -10 -5 0 -3 5 5
10 8 5 20 10 25 10 6 0 3 -5 -5 -10z"/>
<path d="M7683 4914 c-14 -6 -6 -34 9 -34 6 0 8 6 5 14 -3 8 -1 17 6 20 7 2 8
4 2 4 -5 0 -15 -2 -22 -4z"/>
<path d="M3378 4893 c7 -3 16 -2 19 1 4 3 -2 6 -13 5 -11 0 -14 -3 -6 -6z"/>
<path d="M6950 4891 c0 -6 4 -13 10 -16 6 -3 7 1 4 9 -7 18 -14 21 -14 7z"/>
<path d="M5745 4819 c-4 -6 -5 -12 -2 -15 2 -3 7 2 10 11 7 17 1 20 -8 4z"/>
<path d="M4374 4808 c1 -7 5 -18 9 -25 4 -6 2 -15 -4 -19 -7 -4 -10 -3 -6 2 3
5 -1 17 -8 27 -8 12 -15 14 -20 8 -3 -6 -1 -11 5 -11 6 0 8 -5 4 -11 -12 -19
19 -29 38 -12 13 12 15 20 7 34 -11 21 -28 26 -25 7z"/>
<path d="M5550 4810 c-9 -6 -10 -10 -3 -10 6 0 15 5 18 10 8 12 4 12 -15 0z"/>
<path d="M5050 4790 c0 -5 7 -7 15 -4 8 4 15 8 15 10 0 2 -7 4 -15 4 -8 0 -15
-4 -15 -10z"/>
<path d="M5327 4786 c-4 -9 -3 -15 2 -11 5 3 11 0 13 -7 3 -7 7 -5 11 6 4 9 3
15 -2 11 -5 -3 -11 0 -13 7 -3 7 -7 5 -11 -6z"/>
<path d="M5586 4781 c-10 -11 -15 -24 -12 -29 3 -5 -8 -12 -24 -14 -16 -3 -31
-2 -33 1 -2 3 -2 0 -1 -6 2 -7 -5 -13 -16 -13 -11 0 -20 -5 -20 -11 0 -6 7 -8
15 -5 8 3 22 9 30 12 8 3 15 1 15 -5 0 -6 5 -11 10 -11 6 0 10 6 10 14 0 8 7
17 16 20 8 3 12 11 9 17 -4 5 1 19 11 30 9 10 15 19 12 19 -3 0 -13 -9 -22
-19z"/>
<path d="M5620 4786 c0 -2 7 -7 16 -10 8 -3 12 -2 9 4 -6 10 -25 14 -25 6z"/>
<path d="M5477 4758 c7 -8 10 -18 6 -21 -3 -4 -1 -7 6 -7 17 0 10 32 -9 38
-12 4 -13 3 -3 -10z"/>
<path d="M7605 4760 c3 -5 8 -10 11 -10 2 0 4 5 4 10 0 6 -5 10 -11 10 -5 0
-7 -4 -4 -10z"/>
<path d="M3806 4737 c3 -10 9 -15 12 -12 3 3 0 11 -7 18 -10 9 -11 8 -5 -6z"/>
<path d="M5171 4747 c2 -1 13 -9 24 -17 19 -14 19 -14 6 3 -7 9 -18 17 -24 17
-6 0 -8 -1 -6 -3z"/>
<path d="M7732 4741 c-11 -6 -10 -10 0 -19 11 -8 14 -7 14 9 0 10 0 19 -1 19
0 0 -6 -4 -13 -9z"/>
<path d="M5260 4730 c0 -5 5 -10 11 -10 5 0 7 5 4 10 -3 6 -8 10 -11 10 -2 0
-4 -4 -4 -10z"/>
<path d="M5403 4725 c0 -8 4 -12 9 -9 5 3 6 10 3 15 -9 13 -12 11 -12 -6z"/>
<path d="M5068 4723 c6 -2 18 -2 25 0 6 3 1 5 -13 5 -14 0 -19 -2 -12 -5z"/>
<path d="M5423 4711 c-20 -17 -21 -20 -6 -25 9 -4 18 -4 21 -1 3 3 -1 5 -8 5
-9 0 -8 6 5 20 23 25 17 25 -12 1z"/>
<path d="M3408 4713 c6 -2 18 -2 25 0 6 3 1 5 -13 5 -14 0 -19 -2 -12 -5z"/>
<path d="M3787 4690 c3 -11 9 -20 14 -20 11 0 11 3 3 24 -9 23 -23 20 -17 -4z"/>
<path d="M5375 4700 c3 -5 8 -10 11 -10 2 0 4 5 4 10 0 6 -5 10 -11 10 -5 0
-7 -4 -4 -10z"/>
<path d="M3438 4693 c7 -3 16 -2 19 1 4 3 -2 6 -13 5 -11 0 -14 -3 -6 -6z"/>
<path d="M5090 4670 c-9 -6 -10 -10 -3 -10 6 0 15 5 18 10 8 12 4 12 -15 0z"/>
<path d="M5263 4665 c0 -8 4 -12 9 -9 5 3 6 10 3 15 -9 13 -12 11 -12 -6z"/>
<path d="M5384 4669 c-3 -6 -2 -15 4 -21 12 -12 32 -2 32 15 0 7 -4 6 -10 -3
-9 -13 -14 -7 -11 13 2 11 -7 9 -15 -4z"/>
<path d="M5285 4650 c-3 -5 -1 -10 4 -10 6 0 11 5 11 10 0 6 -2 10 -4 10 -3 0
-8 -4 -11 -10z"/>
<path d="M5168 4617 c-3 -19 -2 -25 4 -19 6 6 8 18 6 28 -3 14 -5 12 -10 -9z"/>
<path d="M5186 4591 c-3 -5 1 -11 9 -15 8 -3 15 -1 15 4 0 13 -18 22 -24 11z"/>
<path d="M3596 4513 c-6 -14 -5 -15 5 -6 7 7 10 15 7 18 -3 3 -9 -2 -12 -12z"/>
<path d="M5800 4421 c0 -12 29 -41 40 -41 5 0 7 6 4 13 -6 16 -44 40 -44 28z"/>
<path d="M3930 4380 c-13 -8 -12 -10 3 -10 9 0 17 -5 17 -11 0 -5 -5 -7 -12
-3 -7 5 -8 3 -3 -5 11 -19 29 3 18 23 -6 10 -13 12 -23 6z"/>
<path d="M7090 4370 c0 -5 5 -10 10 -10 6 0 10 5 10 10 0 6 -4 10 -10 10 -5 0
-10 -4 -10 -10z"/>
<path d="M3950 4311 c0 -5 5 -13 10 -16 6 -3 10 -2 10 4 0 5 -4 13 -10 16 -5
3 -10 2 -10 -4z"/>
<path d="M4303 4167 c3 -9 1 -18 -6 -21 -7 -2 -4 -5 6 -5 19 -1 23 24 5 35 -7
5 -9 2 -5 -9z"/>
<path d="M3835 4160 c-3 -5 -1 -10 4 -10 6 0 11 5 11 10 0 6 -2 10 -4 10 -3 0
-8 -4 -11 -10z"/>
<path d="M3987 4145 c-4 -9 -3 -24 3 -34 6 -12 5 -22 -2 -29 -7 -7 -7 -16 1
-29 11 -16 11 -16 6 5 -4 13 -2 22 4 22 6 0 11 -4 11 -9 0 -5 9 -7 20 -4 20 5
25 15 13 26 -3 4 -12 2 -20 -4 -10 -9 -13 -8 -13 5 0 9 5 16 10 16 6 0 10 5
10 12 0 6 -3 8 -7 4 -4 -3 -12 3 -18 15 -11 19 -13 19 -18 4z"/>
<path d="M4371 4126 c2 -2 15 -9 29 -16 23 -12 24 -12 11 3 -7 10 -20 17 -29
17 -8 0 -13 -2 -11 -4z"/>
<path d="M2045 4090 c-3 -5 -1 -10 4 -10 6 0 11 5 11 10 0 6 -2 10 -4 10 -3 0
-8 -4 -11 -10z"/>
<path d="M4034 4045 c-9 -21 -2 -26 13 -10 8 9 9 16 3 20 -6 3 -13 -1 -16 -10z"/>
<path d="M6972 4033 c2 -9 9 -18 16 -21 18 -6 15 25 -4 32 -11 4 -14 1 -12
-11z"/>
<path d="M3970 4032 c0 -12 19 -26 26 -19 2 2 -2 10 -11 17 -9 8 -15 8 -15 2z"/>
<path d="M4016 4007 c3 -10 9 -15 12 -12 3 3 0 11 -7 18 -10 9 -11 8 -5 -6z"/>
<path d="M4040 3980 c0 -5 5 -10 10 -10 6 0 10 5 10 10 0 6 -4 10 -10 10 -5 0
-10 -4 -10 -10z"/>
<path d="M4082 3977 c-8 -10 -6 -13 9 -13 20 0 25 11 10 20 -5 3 -13 0 -19 -7z"/>
<path d="M6965 3980 c3 -5 8 -10 11 -10 2 0 4 5 4 10 0 6 -5 10 -11 10 -5 0
-7 -4 -4 -10z"/>
<path d="M4451 3964 c0 -11 3 -14 6 -6 3 7 2 16 -1 19 -3 4 -6 -2 -5 -13z"/>
<path d="M4135 3940 c-3 -6 1 -7 9 -4 18 7 21 14 7 14 -6 0 -13 -4 -16 -10z"/>
<path d="M4160 3919 c0 -5 -6 -7 -12 -3 -7 4 -10 3 -5 -1 4 -5 16 -9 27 -10
15 -1 17 1 9 12 -14 16 -19 17 -19 2z"/>
<path d="M4080 3909 c0 -4 7 -22 15 -40 8 -19 14 -27 14 -19 0 14 -28 72 -29
59z"/>
<path d="M6956 3882 c-13 -24 -13 -29 -1 -29 8 0 12 4 9 8 -3 5 0 18 6 29 6
11 8 20 6 20 -3 0 -12 -13 -20 -28z"/>
<path d="M4120 3870 c0 -5 5 -10 11 -10 5 0 7 5 4 10 -3 6 -8 10 -11 10 -2 0
-4 -4 -4 -10z"/>
<path d="M4160 3859 c0 -5 5 -7 10 -4 6 3 10 8 10 11 0 2 -4 4 -10 4 -5 0 -10
-5 -10 -11z"/>
<path d="M4195 3820 c-3 -5 3 -10 15 -10 12 0 18 5 15 10 -3 6 -10 10 -15 10
-5 0 -12 -4 -15 -10z"/>
<path d="M4200 3790 c0 -5 4 -10 9 -10 6 0 13 5 16 10 3 6 -1 10 -9 10 -9 0
-16 -4 -16 -10z"/>
<path d="M7035 3790 c3 -5 8 -10 11 -10 2 0 4 5 4 10 0 6 -5 10 -11 10 -5 0
-7 -4 -4 -10z"/>
<path d="M6977 3773 c3 -7 6 -13 8 -13 2 0 5 6 8 13 3 8 -1 14 -8 14 -7 0 -11
-6 -8 -14z"/>
<path d="M6947 3773 c-4 -3 -7 -11 -7 -17 0 -6 5 -5 12 2 6 6 9 14 7 17 -3 3
-9 2 -12 -2z"/>
<path d="M7030 3760 c0 -5 5 -10 10 -10 6 0 10 5 10 10 0 6 -4 10 -10 10 -5 0
-10 -4 -10 -10z"/>
<path d="M4210 3740 c0 -5 5 -10 11 -10 5 0 7 5 4 10 -3 6 -8 10 -11 10 -2 0
-4 -4 -4 -10z"/>
<path d="M6996 3733 c-6 -14 -5 -15 5 -6 7 7 10 15 7 18 -3 3 -9 -2 -12 -12z"/>
<path d="M6934 3729 c-3 -6 -2 -15 3 -20 5 -5 9 -1 9 11 0 23 -2 24 -12 9z"/>
<path d="M7024 3725 c-3 -8 -3 -19 1 -25 3 -5 2 -10 -4 -10 -5 0 -12 5 -14 10
-3 6 -4 5 -3 -2 4 -20 31 -15 28 5 -2 9 2 17 8 17 5 0 10 5 10 10 0 15 -20 12
-26 -5z"/>
<path d="M4215 3710 c-7 -11 22 -26 32 -16 4 3 -2 6 -13 6 -16 0 -17 2 -4 10
9 6 10 10 3 10 -6 0 -15 -5 -18 -10z"/>
<path d="M2457 3663 c-4 -3 -7 -11 -7 -17 0 -6 5 -5 12 2 6 6 9 14 7 17 -3 3
-9 2 -12 -2z"/>
<path d="M6276 3610 c4 -36 10 -69 14 -73 9 -11 0 92 -11 118 -5 12 -6 -7 -3
-45z"/>
<path d="M6916 3644 c-5 -14 -4 -15 9 -4 17 14 19 20 6 20 -5 0 -12 -7 -15
-16z"/>
<path d="M6956 3648 c3 -5 10 -6 15 -3 13 9 11 12 -6 12 -8 0 -12 -4 -9 -9z"/>
<path d="M7025 3650 c3 -5 8 -10 11 -10 2 0 4 5 4 10 0 6 -5 10 -11 10 -5 0
-7 -4 -4 -10z"/>
<path d="M7016 3613 c9 -38 14 -42 14 -10 0 14 -5 29 -10 32 -7 4 -8 -3 -4
-22z"/>
<path d="M2450 3600 c0 -5 5 -10 11 -10 5 0 7 5 4 10 -3 6 -8 10 -11 10 -2 0
-4 -4 -4 -10z"/>
<path d="M1875 3570 c-3 -5 1 -10 9 -10 9 0 16 5 16 10 0 6 -4 10 -9 10 -6 0
-13 -4 -16 -10z"/>
<path d="M7005 3564 c9 -9 19 -13 23 -10 3 4 0 11 -8 16 -24 15 -33 11 -15 -6z"/>
<path d="M6950 3560 c-9 -6 -10 -10 -3 -10 6 0 15 5 18 10 8 12 4 12 -15 0z"/>
<path d="M7006 3524 c-10 -25 1 -29 14 -5 6 12 7 21 1 21 -5 0 -12 -7 -15 -16z"/>
<path d="M6886 3515 c-9 -26 -7 -32 5 -12 6 10 9 21 6 23 -2 3 -7 -2 -11 -11z"/>
<path d="M6940 3478 c0 -6 7 -8 15 -4 8 3 15 1 15 -4 0 -6 5 -10 12 -10 9 0 9
3 0 12 -15 15 -42 19 -42 6z"/>
<path d="M6880 3461 c0 -6 4 -13 10 -16 6 -3 7 1 4 9 -7 18 -14 21 -14 7z"/>
<path d="M6863 3388 c1 -20 5 -35 9 -32 4 3 8 1 8 -5 0 -5 -8 -11 -17 -13 -12
-2 -9 -6 12 -16 25 -11 27 -11 16 1 -9 12 -8 18 6 33 13 13 14 16 3 12 -10 -3
-19 5 -26 26 l-12 31 1 -37z"/>
<path d="M4406 3370 c7 -28 12 -35 18 -29 2 2 -2 15 -10 29 l-15 25 7 -25z"/>
<path d="M4427 3314 c3 -7 9 -14 14 -14 14 0 10 17 -5 23 -10 4 -13 1 -9 -9z"/>
<path d="M4519 3323 c14 -3 36 -12 50 -21 l26 -16 -19 22 c-13 15 -29 22 -50
21 -26 -2 -27 -2 -7 -6z"/>
<path d="M6843 3305 c-6 -7 -8 -18 -3 -26 6 -8 4 -16 -3 -21 -6 -4 -8 -10 -4
-14 4 -4 14 1 21 12 11 14 11 21 3 26 -9 6 -8 10 2 17 7 5 9 11 5 14 -5 3 -14
-1 -21 -8z"/>
<path d="M4400 3272 c-14 -9 -28 -21 -32 -27 -13 -17 -9 -45 6 -45 8 0 18 -5
22 -12 4 -7 3 -8 -4 -4 -27 17 -9 -11 21 -31 17 -13 26 -23 19 -23 -6 0 -15 0
-19 0 -5 0 -8 5 -8 12 0 6 -4 13 -10 15 -5 2 -10 -8 -10 -22 0 -32 31 -44 50
-19 11 15 10 22 -2 41 -16 24 -20 76 -8 112 8 25 7 25 -25 3z"/>
<path d="M1554 3129 c-4 -7 -3 -9 4 -5 5 3 13 0 15 -6 4 -9 6 -10 6 -1 1 17
-16 25 -25 12z"/>
<path d="M1410 3040 c0 -5 5 -10 10 -10 6 0 10 5 10 10 0 6 -4 10 -10 10 -5 0
-10 -4 -10 -10z"/>
<path d="M1430 3020 c-9 -6 -10 -10 -3 -10 6 0 15 5 18 10 8 12 4 12 -15 0z"/>
<path d="M1448 2925 c9 -24 18 -42 20 -40 3 2 -1 18 -8 34 -6 16 -9 35 -5 40
3 6 -1 11 -9 11 -13 0 -13 -5 2 -45z"/>
<path d="M6911 2904 c0 -11 3 -14 6 -6 3 7 2 16 -1 19 -3 4 -6 -2 -5 -13z"/>
<path d="M1490 2839 c0 -6 -6 -7 -12 -2 -7 4 -5 -5 5 -20 10 -15 18 -43 19
-63 1 -19 5 -37 9 -40 12 -7 21 14 13 28 -4 7 -9 24 -10 37 -2 14 -7 27 -13
29 -5 2 -7 12 -4 22 3 11 3 20 -1 20 -3 0 -6 -5 -6 -11z"/>
<path d="M2445 2830 c-3 -5 -1 -10 4 -10 6 0 11 5 11 10 0 6 -2 10 -4 10 -3 0
-8 -4 -11 -10z"/>
<path d="M1305 2600 c3 -5 8 -10 11 -10 2 0 4 5 4 10 0 6 -5 10 -11 10 -5 0
-7 -4 -4 -10z"/>
<path d="M1915 2520 c-3 -5 -1 -19 6 -31 9 -17 8 -23 -2 -30 -11 -7 -10 -9 4
-9 13 0 18 -6 16 -22 -2 -13 0 -29 5 -37 5 -8 4 -16 -3 -21 -9 -5 -8 -11 4
-24 23 -22 24 -21 15 22 -5 20 -11 57 -14 81 -3 24 -10 49 -16 56 -5 6 -7 15
-3 18 3 4 4 7 0 7 -3 0 -9 -4 -12 -10z"/>
<path d="M6711 2464 c0 -11 3 -14 6 -6 3 7 2 16 -1 19 -3 4 -6 -2 -5 -13z"/>
<path d="M6511 2384 c0 -11 3 -14 6 -6 3 7 2 16 -1 19 -3 4 -6 -2 -5 -13z"/>
<path d="M6480 2381 c0 -5 5 -13 10 -16 6 -3 10 -2 10 4 0 5 -4 13 -10 16 -5
3 -10 2 -10 -4z"/>
<path d="M6566 2311 c4 -17 3 -21 -6 -16 -9 6 -11 4 -5 -4 5 -9 11 -9 17 -3 7
7 6 16 -1 29 -11 16 -11 15 -5 -6z"/>
<path d="M1954 2305 c3 -8 2 -15 -2 -15 -9 0 -9 -56 0 -65 10 -11 27 30 19 44
-5 7 -6 22 -4 32 3 11 0 19 -7 19 -7 0 -10 -7 -6 -15z"/>
<path d="M1957 2213 c-15 -15 -15 -18 1 -30 12 -10 12 -12 2 -8 -9 4 -8 1 3
-8 12 -10 14 -17 8 -22 -8 -4 -8 -12 -1 -24 5 -10 7 -21 3 -24 -6 -7 15 -37
27 -37 3 0 7 7 7 15 0 10 -6 14 -16 10 -11 -3 -10 0 3 10 11 8 14 15 7 15 -7
0 -9 5 -6 10 3 6 3 10 -2 10 -4 0 -8 20 -7 45 1 52 -6 61 -29 38z"/>
<path d="M6625 2161 c-3 -5 0 -13 6 -17 8 -5 9 -3 4 6 -6 10 -4 12 9 7 10 -4
15 -3 11 3 -8 13 -22 13 -30 1z"/>
<path d="M6646 2125 c-3 -9 -10 -13 -16 -10 -17 10 -11 -2 8 -16 9 -7 14 -9
10 -5 -4 5 -3 15 4 23 6 7 9 16 6 19 -3 3 -8 -2 -12 -11z"/>
<path d="M2060 2126 c0 -2 7 -7 16 -10 8 -3 12 -2 9 4 -6 10 -25 14 -25 6z"/>
<path d="M2058 2103 c6 -2 10 -9 7 -13 -3 -5 0 -12 6 -16 8 -4 9 -3 5 4 -4 7
-1 12 6 12 9 0 9 3 -2 10 -8 5 -19 9 -25 9 -5 0 -4 -3 3 -6z"/>
<path d="M1895 2090 c3 -5 8 -10 11 -10 2 0 4 5 4 10 0 6 -5 10 -11 10 -5 0
-7 -4 -4 -10z"/>
<path d="M2070 2030 c8 -5 22 -9 30 -9 10 0 8 3 -5 9 -27 12 -43 12 -25 0z"/>
<path d="M2143 2007 c4 -11 -1 -17 -16 -20 -18 -4 -17 -5 6 -6 28 -1 38 21 15
35 -7 5 -9 2 -5 -9z"/>
<path d="M2155 1960 c3 -6 12 -10 20 -10 8 0 12 -10 11 -26 -1 -23 -4 -25 -33
-19 -17 3 -34 2 -36 -2 -7 -11 79 -11 89 0 4 4 2 7 -4 7 -7 0 -12 4 -12 9 0 4
11 7 25 6 14 -2 23 1 19 6 -3 5 -10 7 -15 3 -6 -3 -16 1 -22 9 -14 17 -51 32
-42 17z"/>
<path d="M6735 1925 c-5 -11 -10 -24 -13 -30 -3 -5 3 -3 13 7 9 9 15 22 12 30
-3 9 -7 7 -12 -7z"/>
<path d="M2135 1820 c-4 -6 -11 -8 -16 -5 -5 4 -9 1 -9 -4 0 -14 10 -13 40 4
18 10 20 14 8 15 -9 0 -20 -5 -23 -10z"/>
<path d="M6540 1806 c0 -2 7 -7 16 -10 8 -3 12 -2 9 4 -6 10 -25 14 -25 6z"/>
<path d="M6640 1800 c-8 -5 -10 -10 -5 -10 6 0 17 5 25 10 8 5 11 10 5 10 -5
0 -17 -5 -25 -10z"/>
<path d="M2220 1748 c-12 -8 -12 -9 3 -4 19 6 24 -9 6 -20 -8 -4 -7 -9 2 -15
11 -7 10 -9 -4 -9 -15 0 -16 -2 -5 -14 16 -18 17 -17 22 27 5 40 -2 51 -24 35z"/>
<path d="M2250 1631 c0 -5 7 -12 16 -15 14 -5 15 -4 4 9 -14 17 -20 19 -20 6z"/>
<path d="M2230 1610 c0 -5 5 -10 11 -10 6 0 8 -9 4 -20 -3 -11 -2 -20 3 -20
20 0 21 40 1 50 -13 7 -19 7 -19 0z"/>
<path d="M2275 1580 c-3 -5 -1 -10 4 -10 6 0 11 5 11 10 0 6 -2 10 -4 10 -3 0
-8 -4 -11 -10z"/>
<path d="M1870 1563 c1 -16 49 -67 57 -60 4 5 -7 21 -25 38 -18 16 -32 26 -32
22z"/>
<path d="M1880 1470 c0 -5 4 -10 9 -10 6 0 13 5 16 10 3 6 -1 10 -9 10 -9 0
-16 -4 -16 -10z"/>
<path d="M4352 1454 c-23 -14 -40 -29 -37 -34 3 -5 14 -1 25 10 43 43 110 37
140 -13 14 -23 20 -27 20 -14 0 26 -54 77 -82 77 -13 0 -42 -12 -66 -26z"/>
<path d="M4287 1356 c-4 -10 -5 -21 -2 -24 9 -9 17 6 13 25 -3 17 -4 17 -11
-1z"/>
<path d="M4236 1334 c-5 -14 -4 -15 9 -4 17 14 19 20 6 20 -5 0 -12 -7 -15
-16z"/>
<path d="M4271 1304 c0 -11 3 -14 6 -6 3 7 2 16 -1 19 -3 4 -6 -2 -5 -13z"/>
<path d="M7024 374 c3 -23 13 -59 23 -80 15 -34 18 -36 21 -16 4 26 -15 88
-35 117 -14 18 -15 17 -9 -21z"/>
</g>
</svg>
