<?xml version="1.0" encoding="utf-8"?>
<svg viewBox="0 0 500 500" xmlns="http://www.w3.org/2000/svg" xmlns:xlink="http://www.w3.org/1999/xlink" xmlns:bx="https://boxy-svg.com">
  <defs>
    <path id="path-0" style="fill: none;" d="M 171.363 145.636 C 171.363 184.949 170.225 214.664 170.225 243.514 C 173.192 247.273 180.468 249.387 180.468 245.79 C 178.591 245.79 176.046 242.376 175.347 242.376 C 175.347 233.765 197.157 221.704 203.231 215.63 C 208.629 204.264 217.802 196.731 222.579 187.177"/>
    <linearGradient id="gradient-1" x1="219.1" y1="39.9983" x2="202.599" y2="91.4037" gradientUnits="userSpaceOnUse" gradientTransform="matrix(1.212347, 0, 0, 1.181927, 228.040939, 108.551739)">
      <stop stop-color="#DF8908"/>
      <stop offset="1" stop-color="#B415FF"/>
    </linearGradient>
    <pattern x="0" y="0" width="25" height="25" patternUnits="userSpaceOnUse" viewBox="0 0 100 100" id="pattern-0">
      <rect x="0" y="0" width="50" height="100" style="fill: black;"/>
    </pattern>
    <pattern id="pattern-0-0" patternTransform="matrix(1, 0, 0, 1, 146.102024, 130.089985)" xlink:href="#pattern-0"/>
    <linearGradient id="color-0" gradientUnits="userSpaceOnUse" bx:pinned="true">
      <stop style="stop-color: rgb(51, 51, 51)"/>
    </linearGradient>
    <linearGradient id="color-1" gradientUnits="userSpaceOnUse" bx:pinned="true">
      <stop style="stop-color: #d8d8d8;"/>
    </linearGradient>
  </defs>
  <path d="M 310.481 158.654 C 310.481 157.418 311.583 156.456 312.844 156.593 L 350.793 160.718 C 355.613 161.243 359.691 157.278 359.17 152.578 C 358.627 147.693 353.439 144.674 348.772 146.529 L 313.411 160.575 C 312.012 161.131 310.481 160.128 310.481 158.654 Z" fill="url(#gradient-1)" style=""/>
  <text style="fill: rgb(255, 255, 255); font-family: Arial, sans-serif; font-size: 43px; font-weight: 700; letter-spacing: -4.7px; paint-order: stroke; stroke: url('#pattern-0-0'); stroke-linecap: round; stroke-miterlimit: 4.57; stroke-width: 0px; text-transform: capitalize; word-spacing: -8.3px; white-space: pre; transform-box: fill-box; transform-origin: 27.642px 25.1933px;" transform="matrix(0.918481, -0.006143, 0.00941, 0.977896, 161.647996, 3.452739)" x="130.96" y="157.586">RC</text>
</svg>